<svg version="1.1" id="Layer_1" xmlns="http://www.w3.org/2000/svg" xmlns:xlink="http://www.w3.org/1999/xlink" x="0px" y="0px"
	 width="100%" viewBox="0 0 1280 640" enable-background="new 0 0 1280 640" xml:space="preserve">
<path fill="#FFFFFF" opacity="1.000000" stroke="none" 
	d="
M861.000000,641.000000 
	C575.537109,641.000000 290.574158,640.993042 5.611274,641.080139 
	C2.069736,641.081238 0.888157,640.611389 0.890513,636.612366 
	C1.014526,426.139801 1.013443,215.667191 0.892190,5.194652 
	C0.890026,1.437909 1.847902,0.915405 5.304322,0.916129 
	C429.082520,1.004825 852.860718,1.003837 1276.638916,0.930116 
	C1279.936035,0.929543 1281.121826,1.220020 1281.119263,5.137830 
	C1280.984497,215.777008 1280.988159,426.416290 1281.100830,637.055481 
	C1281.102783,640.590698 1280.249634,641.089172 1276.945435,641.086731 
	C1138.463745,640.985596 999.981873,641.000000 861.000000,641.000000 
z"/>
<path fill="#E51A0F" opacity="1.000000" stroke="none" 
	d="
M585.365723,246.791046 
	C584.522278,246.720673 584.044067,246.739365 583.244995,246.922668 
	C580.295776,248.538040 577.562317,248.112946 574.440491,247.275330 
	C573.621765,246.839432 573.183105,246.670334 572.390259,246.542267 
	C565.704224,246.771988 561.089600,243.109283 557.103333,239.051437 
	C547.307068,229.079315 546.942566,216.485748 551.589172,204.472672 
	C552.200806,202.891281 553.224731,201.599945 555.010498,200.475067 
	C555.720093,200.210159 555.965881,199.999741 556.152588,199.427399 
	C557.550598,194.490204 561.679993,192.562698 565.432312,190.684113 
	C577.028870,184.878296 588.178284,186.955566 598.093445,194.464951 
	C606.805420,201.063110 609.947876,210.450027 608.313904,221.642639 
	C607.905884,222.413086 607.727539,222.842804 607.608154,223.621246 
	C608.212158,232.041275 602.912598,237.065536 597.724976,241.769836 
	C594.518982,244.677124 590.579285,247.190781 585.365723,246.791046 
z"/>
<path fill="#D6F1FA" opacity="1.000000" stroke="none" 
	d="
M480.903320,325.103821 
	C485.018219,325.283722 485.429932,328.434998 485.398041,331.117554 
	C485.354614,334.768219 489.981506,339.799194 482.970428,341.795715 
	C477.947784,343.226044 471.501282,339.548401 469.734924,334.483490 
	C467.450012,327.931854 461.055511,325.971405 456.121094,330.419952 
	C454.722717,331.680634 452.356506,332.891113 453.286926,335.215118 
	C454.138580,337.342316 455.873505,339.282684 458.230377,339.846649 
	C462.414398,340.847809 466.456421,342.076294 470.085419,344.450195 
	C471.200958,345.179901 472.268127,344.637238 473.418762,344.421631 
	C475.569061,344.018768 477.784576,342.753418 477.706512,347.248535 
	C477.655426,350.190369 482.209869,351.316986 484.681030,352.260895 
	C486.802155,353.071106 486.975861,349.446442 487.006104,347.362854 
	C487.044373,344.725525 487.651947,342.415558 490.104553,340.979248 
	C492.387390,339.642395 493.890656,337.081238 494.452026,335.117920 
	C495.999268,329.706665 500.517944,328.787231 504.150146,329.330048 
	C510.815613,330.326080 517.818298,328.604614 524.231262,331.831177 
	C525.651062,332.545532 526.940979,332.371857 526.352234,334.652374 
	C525.928650,336.292999 527.234924,337.792328 528.455200,338.958893 
	C529.508362,339.965698 530.378845,341.840729 531.905884,341.503510 
	C533.859497,341.072083 532.680847,338.954468 533.093445,337.634521 
	C533.836487,335.257629 534.282288,332.711060 535.455017,330.564697 
	C536.929932,327.865143 538.239868,323.811371 542.264221,328.966644 
	C544.743530,332.142670 551.106567,331.680237 555.093445,328.847931 
	C556.856018,327.595825 558.375671,326.310211 559.997437,328.911316 
	C560.789612,330.181946 561.869995,329.692230 563.069092,329.568665 
	C567.514954,329.110504 569.838806,331.412720 572.193054,335.248016 
	C577.116211,343.268097 575.841370,351.841522 575.971924,360.353516 
	C576.068054,366.624268 576.055359,372.898346 575.974792,379.169464 
	C575.932739,382.444275 574.122803,384.618774 570.879883,384.857544 
	C564.869995,385.300110 562.875793,383.844696 561.980408,379.065857 
	C560.234314,369.747437 558.897339,360.424896 560.978271,350.959747 
	C561.882385,346.847046 559.000549,345.687073 555.888977,345.162079 
	C552.807800,344.642212 551.763489,346.553833 550.872375,349.340454 
	C548.525574,356.679749 547.165344,363.973175 548.900818,371.660309 
	C549.249878,373.206390 548.919189,374.989655 548.576721,376.594147 
	C546.773132,385.043945 546.168335,385.482849 537.948425,384.896271 
	C537.461731,384.861511 536.738037,384.852966 536.539429,384.555389 
	C531.216858,376.580353 524.960815,381.656403 519.154419,383.474945 
	C509.697144,386.436951 501.143341,384.823761 493.108124,379.362671 
	C492.971924,379.270142 492.856598,379.143829 492.741608,379.023621 
	C491.385742,377.606232 491.220154,374.198181 489.324890,374.559540 
	C486.661133,375.067413 484.101166,376.937073 481.861786,378.690491 
	C476.477692,382.906250 471.093231,386.008240 463.708069,384.136230 
	C459.736786,383.129547 455.417450,383.791290 451.209900,383.313416 
	C446.095245,382.732544 442.603668,379.296173 437.990265,378.187805 
	C436.769135,377.894409 436.180756,376.400360 436.033630,374.938965 
	C435.785583,372.475037 435.331268,370.032745 435.029175,367.573303 
	C434.046600,359.574493 437.238770,356.800751 445.446533,358.743652 
	C449.235748,359.640656 453.143677,360.466187 454.701813,365.001770 
	C455.264893,366.640869 457.111389,367.113708 458.932281,367.052399 
	C460.408539,367.002686 461.975067,366.782501 463.239777,367.870697 
	C464.969818,369.359222 466.499329,369.142212 468.007843,367.498596 
	C469.657440,365.701202 468.137299,363.967560 467.791718,362.347290 
	C467.371674,360.377930 466.069977,361.642914 465.152893,362.223236 
	C463.753998,363.108429 462.338013,363.310791 461.002319,362.211517 
	C459.716553,361.153320 460.608459,360.183624 461.236053,359.181427 
	C462.220947,357.608826 461.297516,357.039215 459.877563,356.998901 
	C453.278992,356.811523 448.784546,351.622742 442.774933,349.849548 
	C438.741974,348.659607 436.589783,340.817780 436.338593,336.612396 
	C436.058105,331.917847 437.021790,328.302826 440.794769,325.194977 
	C442.145691,326.609436 441.808929,327.859985 441.437256,329.176086 
	C438.866852,338.277679 441.864990,344.772430 450.548340,348.523285 
	C455.113556,350.495270 459.629608,352.546387 464.480713,353.907959 
	C471.688019,355.930817 474.526367,359.499329 474.241272,364.741821 
	C474.106506,367.219574 473.120850,369.194183 471.260742,370.817627 
	C464.290131,376.901367 452.450653,374.852325 448.001831,366.767944 
	C447.441925,365.750488 447.175842,364.552429 446.365753,363.697510 
	C444.628052,361.863678 442.348877,361.954651 440.344910,362.754211 
	C438.226654,363.599274 439.135529,365.653137 439.583527,367.138245 
	C441.551575,373.662445 446.328491,377.438629 452.659241,378.906952 
	C458.849945,380.342773 465.254791,380.348846 471.441345,378.673462 
	C477.522247,377.026764 481.737549,373.308441 482.509186,366.646545 
	C483.288574,359.917694 481.154633,354.534454 475.090240,351.028503 
	C471.331177,348.855347 467.438965,347.029175 463.220947,345.887817 
	C459.689148,344.932159 456.218414,343.794922 453.146606,341.663574 
	C449.795929,339.338745 448.218567,336.247833 449.052155,332.231354 
	C449.931549,327.994232 452.903046,325.716431 456.973022,324.923920 
	C465.928192,323.180176 470.630768,325.632416 474.245911,334.101868 
	C475.510315,337.064087 477.763000,336.834869 480.044220,336.447845 
	C483.093567,335.930420 482.165009,333.648926 481.777435,331.725830 
	C481.448547,330.093933 480.725922,328.568756 480.409027,326.532410 
	C480.470276,325.884399 480.543945,325.631042 480.903320,325.103821 
z"/>
<path fill="#D6F1FA" opacity="1.000000" stroke="none" 
	d="
M719.304932,335.018555 
	C717.993225,334.311005 717.799011,333.246552 718.059753,332.307556 
	C719.208557,328.170349 717.889832,324.595184 716.082886,320.931671 
	C714.381042,317.481232 716.595581,314.615143 720.519714,314.743774 
	C721.010193,314.759796 721.714417,315.053314 721.957520,314.827850 
	C728.214233,309.025757 730.187500,315.644104 733.411072,318.706329 
	C734.013672,319.278748 734.994629,319.760620 734.441162,320.645264 
	C733.344299,322.398376 732.107727,325.624512 733.418152,325.884277 
	C736.370972,326.469513 737.954163,329.480133 741.376892,329.163696 
	C746.617920,328.679199 749.658447,331.913177 750.926331,336.806793 
	C751.389709,338.595123 751.513611,340.541870 753.789795,340.958710 
	C755.816833,341.329956 756.864197,339.921692 758.360901,338.784760 
	C761.229126,336.605988 762.722900,334.886322 760.398071,331.362396 
	C759.410828,329.866089 760.688965,328.060455 761.898926,326.945190 
	C763.591797,325.384796 763.888794,327.901001 764.931091,328.236389 
	C767.306091,329.000671 769.041992,331.034515 772.220215,330.352570 
	C775.198364,329.713531 778.599487,330.705566 779.941956,334.331787 
	C780.773804,336.578491 782.549805,336.336487 784.041565,335.710541 
	C787.559875,334.234344 789.253296,329.255157 787.533020,325.146118 
	C790.680420,325.903107 793.424438,325.608337 795.588318,329.032135 
	C797.151672,331.505615 801.257629,330.303741 804.021912,329.696503 
	C806.698364,329.108551 809.134338,328.846313 810.987061,330.763031 
	C813.089294,332.937744 814.543762,330.374451 816.730286,330.412018 
	C815.868469,332.783539 816.712036,334.576691 817.857849,336.464233 
	C822.729736,344.489746 823.745117,353.144348 822.191711,362.350952 
	C821.763245,364.890137 820.677673,366.023865 818.393982,366.511780 
	C822.730530,372.530334 823.063599,378.868011 817.267761,382.506195 
	C816.595886,382.927917 816.174377,383.804108 815.220520,383.518860 
	C808.441223,381.491455 801.572937,386.553070 794.730286,383.245819 
	C793.889832,382.839661 792.293030,383.956970 791.062683,384.411499 
	C789.911926,384.836639 788.619324,385.283661 788.227051,383.652252 
	C787.061829,378.805969 782.996155,378.958740 779.466125,378.765411 
	C777.155273,378.638916 776.925110,377.767731 777.317261,376.038788 
	C777.416077,375.603333 778.233276,375.152466 778.151184,374.880310 
	C775.846802,367.240021 778.363525,358.751831 773.986450,350.169830 
	C772.986206,356.160339 771.089600,360.611328 769.823303,365.167572 
	C768.715637,369.153320 767.095520,372.811340 765.706848,376.628967 
	C763.899170,381.598724 760.402100,385.033264 756.201782,384.966125 
	C751.562378,384.891907 748.606506,381.894379 746.956543,376.223572 
	C744.396545,367.424561 740.210083,359.140045 738.765381,349.968536 
	C738.417297,347.759003 735.972534,347.503571 734.308167,347.489258 
	C732.414429,347.472992 732.962646,349.478607 733.010559,350.662994 
	C733.285156,357.449524 732.484802,364.234772 733.825439,371.039795 
	C735.030518,377.156586 733.102112,381.047150 729.167175,382.106506 
	C730.259216,368.119690 729.380249,354.377716 729.589661,340.652069 
	C729.683655,334.490784 729.161621,334.106964 723.164001,334.420685 
	C721.992981,334.481995 720.868835,334.736115 719.304932,335.018555 
z"/>
<path fill="#D0F8E4" opacity="1.000000" stroke="none" 
	d="
M585.028015,247.025085 
	C596.148010,243.038666 604.244934,236.329315 607.429199,224.223602 
	C609.705444,225.219650 608.969666,227.263840 608.885681,228.952621 
	C608.660095,233.492172 611.236206,234.345139 614.918884,233.861435 
	C619.149719,233.305756 623.208130,230.677170 627.683777,233.785904 
	C629.083130,234.757889 630.493347,233.044373 629.485779,231.165146 
	C627.285645,227.061478 626.581421,223.291122 628.668823,218.569794 
	C629.896301,215.793579 628.850769,211.832092 628.290344,208.493896 
	C627.670166,204.800064 627.856506,202.048019 632.165161,200.926788 
	C634.288269,200.374283 635.542664,198.833847 636.464172,196.566315 
	C638.230591,192.220261 643.357666,191.244705 646.244446,188.058746 
	C650.250854,183.637115 654.357910,186.248856 658.543335,186.934158 
	C659.517944,187.093719 660.569275,187.193634 661.523499,187.006287 
	C671.685181,185.010956 678.703247,191.061935 685.897522,196.548965 
	C687.862244,198.047440 689.852478,199.808899 688.193176,202.836868 
	C687.942810,203.293610 688.118958,204.233368 688.443481,204.718536 
	C693.687866,212.559677 693.377258,220.935699 691.064819,229.577469 
	C690.840149,230.417114 691.437317,231.476669 691.783569,232.796173 
	C691.805786,235.645126 689.898193,236.887695 688.184631,238.037537 
	C683.336609,241.290649 678.680115,244.678024 675.661316,249.862686 
	C675.065002,250.886734 674.096130,251.579239 672.482422,251.197662 
	C668.775146,248.408493 660.575378,248.604324 657.680664,251.500031 
	C655.430298,253.751114 654.048096,252.383789 653.136719,250.446869 
	C652.173401,248.399597 651.097656,247.551544 648.894226,248.529663 
	C646.046265,249.793961 647.720520,251.511841 648.469788,252.992096 
	C651.282227,258.548218 649.944580,264.489288 649.760620,270.193359 
	C649.620789,274.531036 648.133606,278.736145 648.725769,283.314880 
	C649.004456,285.469421 648.355957,289.684265 643.676208,287.177368 
	C642.574158,286.587006 641.584106,287.244385 640.974365,288.592621 
	C639.520691,291.806702 636.571106,293.092712 633.382507,293.945282 
	C631.944214,294.329803 630.436462,294.533936 629.067688,295.086365 
	C618.659912,299.287231 609.408936,295.410217 600.217041,291.051971 
	C598.129883,290.062408 597.369202,287.247589 594.361328,287.018036 
	C594.354187,284.361633 592.130127,282.967804 591.155579,280.965637 
	C587.843323,274.160675 582.650391,267.906525 586.358582,259.164459 
	C587.162292,257.269653 587.497375,255.272018 588.904236,253.327347 
	C592.161804,248.824524 587.635437,248.547424 585.028015,247.025085 
z"/>
<path fill="#2D8ECE" opacity="1.000000" stroke="none" 
	d="
M587.702209,363.823334 
	C588.746277,364.057220 589.484009,364.129883 590.592773,364.205811 
	C593.172424,364.040741 593.622070,365.623352 594.219666,367.267883 
	C595.945557,372.017212 603.429810,373.444611 606.958435,369.824249 
	C608.642578,368.096344 608.382812,366.676300 606.716614,365.180817 
	C604.895386,363.546112 602.639404,362.861511 600.353394,362.491211 
	C596.665405,361.893799 593.402527,360.299286 590.056580,358.794952 
	C583.084595,355.660309 581.766479,350.249146 582.078979,345.709198 
	C582.479797,339.884491 587.522827,333.632233 593.252747,332.292908 
	C598.315002,331.109680 603.569153,331.133209 608.631653,332.257538 
	C614.541809,333.570099 619.372437,339.259552 620.038757,344.871979 
	C620.423340,348.111511 619.372131,349.911896 615.767212,350.032898 
	C611.943665,350.161255 608.796326,350.067749 606.659729,345.851227 
	C604.855286,342.290070 599.905823,341.702820 597.060181,343.846771 
	C594.630066,345.677673 594.714844,347.828796 597.356384,349.330994 
	C598.963562,350.244965 600.804871,350.550873 602.580933,350.996094 
	C606.635986,352.012665 610.325867,353.960876 614.179565,355.448639 
	C623.468567,359.034668 622.949707,375.057831 614.205078,379.774872 
	C605.868591,384.271698 594.072021,383.586304 586.302368,377.202942 
	C586.033142,376.915192 585.789307,376.717041 585.632812,376.703674 
	C581.616211,373.994720 580.800842,369.947540 580.840820,365.347778 
	C581.866516,364.734467 582.622314,364.413757 583.688171,364.027924 
	C585.103577,363.555481 586.233765,363.428589 587.702209,363.823334 
z"/>
<path fill="#2D8ECE" opacity="1.000000" stroke="none" 
	d="
M681.593140,316.770081 
	C682.559937,317.182892 683.137268,317.290405 684.009216,317.388245 
	C687.537231,318.845886 686.593567,321.864685 686.521423,324.248169 
	C686.128967,337.199371 686.609314,350.146210 686.507324,363.094208 
	C686.454102,369.850647 687.147217,370.474091 693.907776,370.506897 
	C699.064636,370.531952 704.225464,370.376862 709.377563,370.567810 
	C713.968628,370.738007 715.439270,372.383789 715.425964,376.654083 
	C715.413696,380.565857 713.505615,382.377289 709.610413,382.486298 
	C699.130615,382.779480 688.653503,382.435577 678.175293,382.465057 
	C677.000305,382.468384 675.868347,382.162262 674.533569,381.123596 
	C674.189392,380.776337 674.099304,380.923126 674.168335,380.871674 
	C672.479980,378.774933 672.498962,376.190399 672.460754,373.788269 
	C672.176880,355.933319 672.415649,338.081299 673.106995,320.236298 
	C673.126831,319.724335 673.355347,319.280914 673.817566,318.420746 
	C674.121277,318.028229 674.317932,317.884216 674.313232,317.762451 
	C676.221130,314.986298 678.668762,315.469482 681.593140,316.770081 
z"/>
<path fill="#CBECF9" opacity="1.000000" stroke="none" 
	d="
M586.039551,377.275391 
	C593.598328,381.665497 601.640320,382.979218 610.181396,380.081024 
	C616.060425,378.086121 619.729126,374.162598 620.041809,367.720245 
	C620.342896,361.517273 617.747925,357.789581 610.850952,355.118286 
	C606.379578,353.386505 601.722534,352.116699 597.108704,350.777985 
	C595.157837,350.211945 593.713928,349.211121 593.410339,347.209198 
	C593.064575,344.928589 594.606262,343.448883 596.298279,342.352203 
	C600.221680,339.809265 606.674500,341.754517 608.705200,345.974274 
	C609.946655,348.554077 615.295288,350.396637 617.735107,348.740082 
	C620.416138,346.919769 618.936340,344.235413 618.290405,341.985046 
	C617.631592,339.689972 615.781616,338.105499 614.023987,336.565002 
	C605.241211,328.867157 588.415833,332.122620 584.140991,342.336639 
	C581.670288,348.239746 583.425232,353.632111 588.905823,356.893066 
	C593.386719,359.559143 598.412476,360.690857 603.380493,361.983093 
	C606.764893,362.863434 610.219238,364.288910 609.470703,368.406860 
	C608.770142,372.260803 605.173096,372.711578 601.638367,373.077484 
	C595.237122,373.740051 593.127075,369.591431 591.161377,364.496277 
	C592.327148,361.977692 591.655334,360.569366 589.291321,359.614166 
	C576.575378,354.476135 579.715515,337.711884 588.990356,332.082428 
	C594.780640,328.568054 602.183472,329.326843 608.905334,330.612946 
	C615.765381,331.925446 621.935364,339.910034 621.885986,346.843262 
	C621.867615,349.422089 620.262939,350.602295 617.805908,351.008057 
	C615.990479,351.307831 613.034729,349.879761 612.617981,352.220062 
	C612.230652,354.394867 615.106873,354.638123 617.012085,355.280548 
	C620.295471,356.387665 619.323792,360.609863 621.799500,362.544617 
	C623.892456,361.535217 623.143127,359.558746 622.932312,358.223907 
	C622.092529,352.905518 624.957703,348.248749 625.400940,343.128632 
	C625.662415,340.107727 629.091614,338.236298 632.429077,336.880005 
	C632.953735,336.965485 633.143921,337.146637 633.406982,337.714478 
	C627.834412,345.314484 626.674133,353.593140 627.286438,362.465607 
	C627.912292,371.533722 635.603699,379.319244 644.732910,379.674316 
	C650.789246,379.909821 656.731873,379.884766 661.535522,375.286865 
	C662.244080,374.608765 663.288513,374.361542 664.701538,374.656616 
	C665.387939,375.268707 665.510742,375.772583 665.219116,376.662201 
	C660.348083,383.233368 652.955872,384.007294 646.415283,384.627899 
	C636.916260,385.529144 629.308044,379.149567 625.795410,369.832214 
	C625.354431,368.662689 625.044617,367.021820 623.289673,367.241394 
	C621.720520,367.437714 622.314392,369.111176 621.786072,370.029846 
	C620.366577,372.498169 621.323853,375.415375 619.592529,378.030670 
	C616.283997,383.028564 610.989929,382.654572 606.374207,383.576874 
	C598.783875,385.093445 591.302490,384.780762 586.039551,377.275391 
z"/>
<path fill="#FCF8C2" opacity="1.000000" stroke="none" 
	d="
M672.092407,251.342377 
	C675.987244,250.364883 675.615967,246.103668 678.146667,244.253937 
	C682.735046,240.900223 687.073792,237.205002 691.715393,233.405243 
	C699.656860,232.724808 707.344055,233.687653 715.055725,234.049133 
	C716.499756,234.116821 717.485352,234.550201 718.386719,235.753479 
	C721.283997,239.621292 724.693909,242.892944 729.550964,244.206696 
	C730.530884,244.471756 731.087219,245.290710 730.660583,246.052307 
	C728.461792,249.978104 731.431213,253.259033 732.500366,256.332550 
	C736.080383,266.623383 732.666626,275.101685 727.817749,283.852936 
	C725.829468,287.441315 722.085999,289.082947 720.209412,292.892517 
	C719.232544,294.875702 714.428406,295.750671 711.346802,295.765015 
	C703.972900,295.799408 696.513000,297.037933 689.221191,294.103638 
	C685.568604,292.633789 682.484558,290.720886 679.678955,288.098694 
	C678.342224,286.849365 677.697632,283.839844 674.737366,286.295868 
	C673.588013,287.249451 672.732544,285.401917 673.237427,284.832245 
	C676.708984,280.915039 673.139160,277.262817 671.582703,275.221283 
	C668.172852,270.748535 669.339661,266.167816 669.114502,261.573090 
	C668.940491,258.021210 668.308228,254.197952 672.092407,251.342377 
z"/>
<path fill="#232323" opacity="1.000000" stroke="none" 
	d="
M590.173096,416.573303 
	C592.939636,412.274200 596.887817,412.112701 600.556519,413.461670 
	C603.794312,414.652130 605.523560,414.124268 606.958557,411.177551 
	C607.938721,409.164856 609.621887,408.557465 610.127136,411.212921 
	C610.718445,414.320404 614.711670,411.843658 614.873962,414.512939 
	C615.070557,417.746063 610.912598,415.022369 610.559021,417.211334 
	C610.169617,419.622711 609.764709,422.388550 610.580139,424.539978 
	C611.445007,426.821747 614.756165,426.308899 616.877808,427.341095 
	C618.136292,427.953369 618.451355,425.533783 618.320068,424.309357 
	C617.778992,419.263763 619.519104,414.242889 618.376526,409.189056 
	C618.129333,408.095551 618.526428,406.633453 619.858887,406.659393 
	C621.191528,406.685333 623.480652,406.935822 622.755798,409.057831 
	C620.952698,414.336395 623.535767,419.452026 622.896606,424.717560 
	C622.450806,428.389801 622.780518,431.373535 617.985168,428.067841 
	C617.040894,427.416840 616.048340,427.937927 614.874878,428.466278 
	C608.975769,431.122253 606.052429,429.100922 605.903625,422.723083 
	C605.858093,420.766998 606.613159,418.588776 605.358826,416.908356 
	C604.534241,415.803650 603.166016,415.023376 601.473267,416.122711 
	C598.965820,417.751099 593.616821,414.383362 593.679688,420.590485 
	C593.715027,424.076080 594.665771,426.647736 598.916077,425.770233 
	C600.053833,425.535309 601.382996,424.718109 601.679504,426.451904 
	C601.909302,427.796356 601.130981,428.777069 599.497131,429.233765 
	C594.168335,430.723358 590.494202,428.564575 589.133911,422.886139 
	C588.414917,419.884949 588.496399,420.017365 585.982117,421.565979 
	C583.904358,422.845734 581.445679,421.857117 579.182129,422.176575 
	C578.131714,422.324829 576.589722,421.879181 576.549255,423.576538 
	C576.518860,424.852478 577.520203,425.766693 578.759766,425.910858 
	C580.221802,426.080902 581.728882,426.006744 583.202271,425.877686 
	C583.975952,425.809937 584.853455,425.140930 585.201172,426.341156 
	C585.486206,427.324799 585.364990,428.313721 584.363098,428.961487 
	C581.912720,430.545685 575.320740,429.235077 573.289246,426.753754 
	C570.968140,423.918762 571.054077,417.788330 573.590637,415.146454 
	C576.604675,412.007355 580.204773,412.389130 583.691284,414.073273 
	C584.735718,414.577728 585.455933,415.996735 586.051880,417.139099 
	C587.588379,420.084412 588.807983,419.620453 590.173096,416.573303 
z"/>
<path fill="#E3F6FB" opacity="1.000000" stroke="none" 
	d="
M674.148071,381.170532 
	C686.307129,380.865936 698.425476,380.910217 710.542236,381.072693 
	C714.180969,381.121429 713.838318,378.721405 713.898071,376.347961 
	C713.964111,373.722137 713.578491,371.859314 710.177429,371.952942 
	C703.539368,372.135651 696.889282,371.883148 690.251160,372.064850 
	C686.215515,372.175354 684.678955,370.671173 684.700378,366.532288 
	C684.783875,350.433502 684.596069,334.333344 684.406494,317.806122 
	C688.279114,316.768036 688.432373,319.797089 688.949036,322.358124 
	C689.627563,325.720825 688.155457,328.900604 687.915039,332.208344 
	C687.166626,342.503876 689.297485,352.766144 688.023682,363.060181 
	C687.504089,367.259705 689.600464,369.155914 693.877625,369.049133 
	C699.867493,368.899597 705.864746,368.944366 711.856995,369.031372 
	C714.829285,369.074524 716.087646,367.803467 716.035095,364.844238 
	C715.946411,359.851227 715.987427,354.855194 716.032043,349.860962 
	C716.046143,348.289856 715.511475,346.337097 718.426025,345.987183 
	C720.816040,347.589478 720.344849,349.889435 720.365723,351.988800 
	C720.442017,359.642639 720.391296,367.297516 720.396606,374.951965 
	C720.398071,377.126648 720.375610,379.294678 721.906372,381.591827 
	C721.904175,383.150696 722.092651,385.050110 720.621338,384.729675 
	C709.763977,382.365051 698.826233,387.089661 687.939331,384.152649 
	C685.195435,383.412384 681.950684,383.433929 679.067261,384.501068 
	C676.072327,385.609467 674.680969,384.365295 674.148071,381.170532 
z"/>
<path fill="#232323" opacity="1.000000" stroke="none" 
	d="
M760.097412,418.726624 
	C762.723206,420.508209 765.984741,422.170044 764.274048,426.360535 
	C762.755493,430.080322 759.213745,429.748077 756.137268,429.240173 
	C752.972168,428.717651 751.017883,428.272095 750.030273,432.637634 
	C749.075684,436.857208 738.315613,437.894653 735.595398,434.461456 
	C734.590759,433.193542 734.307007,431.586273 735.199158,430.256042 
	C737.547119,426.755157 737.599365,423.355042 736.087769,419.421692 
	C735.158569,417.003632 736.105774,414.271484 739.108459,413.501801 
	C742.976746,412.510193 747.072144,412.340576 750.694153,413.999603 
	C752.341003,414.753967 753.098206,414.823059 754.523499,413.943054 
	C756.911926,412.468414 759.612976,412.695831 762.258301,413.263977 
	C763.153748,413.456268 764.533447,413.369110 764.183960,414.831818 
	C763.950439,415.808716 763.757507,417.363800 761.691284,416.711670 
	C761.846252,417.753143 759.109375,417.097534 760.097412,418.726624 
z"/>
<path fill="#E3F6FB" opacity="1.000000" stroke="none" 
	d="
M665.367432,376.993774 
	C664.978333,376.477905 664.956604,375.955841 664.880615,375.045593 
	C664.419617,373.422485 664.682190,372.081055 664.113342,370.552887 
	C663.350525,368.019653 661.677124,366.764252 659.445801,365.582947 
	C658.654785,364.869293 658.433594,364.247314 658.631958,363.199219 
	C659.920898,361.647095 661.785828,362.001526 663.311279,360.788574 
	C664.507507,360.035950 665.506714,359.582916 666.471313,358.513641 
	C669.266235,352.933746 666.720825,348.516418 663.951172,343.839447 
	C662.762451,342.294373 661.869019,340.968719 661.145203,339.155579 
	C660.739197,337.777374 660.484619,336.695679 659.211121,335.827759 
	C658.781494,335.470093 658.613281,335.321167 658.206909,334.932861 
	C656.829346,332.721436 653.987061,333.656433 652.924255,331.356750 
	C655.856323,328.870361 660.711365,329.613037 663.150208,332.829498 
	C664.588867,334.726776 665.633240,336.696472 668.606079,335.699585 
	C671.786377,334.633148 671.917847,332.283356 672.102295,329.464142 
	C672.349182,325.691895 670.627563,321.663879 673.710449,318.089172 
	C674.182190,338.658234 674.243164,359.288269 674.270752,380.369263 
	C673.366577,380.898468 672.298157,380.809509 672.254395,379.841736 
	C672.006226,374.347412 668.872559,375.718475 665.367432,376.993774 
z"/>
<path fill="#232323" opacity="1.000000" stroke="none" 
	d="
M654.381836,436.226501 
	C652.013184,436.346313 649.970947,436.751556 648.093323,435.919495 
	C645.148132,434.614380 643.439209,432.896149 645.730103,429.437042 
	C647.503235,426.759674 647.875549,423.846497 646.506104,420.609619 
	C644.765259,416.494995 646.856445,413.427551 651.336731,412.937683 
	C652.312561,412.830994 653.372314,412.761292 654.292908,413.025146 
	C656.473938,413.650269 658.903137,412.202454 660.923096,413.879120 
	C658.516479,416.182098 659.990417,420.152649 657.252197,422.347443 
	C656.093750,423.275970 653.736755,424.503265 656.646606,425.801514 
	C659.150330,426.918549 661.337341,428.038605 660.805298,431.041199 
	C660.248657,434.182068 657.760254,435.599915 654.381836,436.226501 
z"/>
<path fill="#232323" opacity="1.000000" stroke="none" 
	d="
M699.203125,412.982788 
	C704.208008,414.353546 704.011841,418.216766 703.526489,421.591980 
	C703.166260,424.096924 706.102356,428.670502 701.613953,428.872070 
	C696.575745,429.098236 700.404358,424.237732 699.261230,421.937378 
	C698.924866,421.260559 699.195679,420.296539 699.126404,419.469299 
	C698.992676,417.870636 698.499390,416.444489 696.605347,416.352600 
	C694.550476,416.252899 693.534119,417.601410 693.372009,419.425903 
	C693.166260,421.741943 693.174988,424.085022 693.227661,426.413361 
	C693.265808,428.098816 693.159180,429.296265 690.916992,429.207581 
	C689.025574,429.132782 688.793335,428.209900 688.805420,426.664246 
	C688.851013,420.833801 688.856262,415.002075 688.776917,409.172211 
	C688.753906,407.483459 689.326416,406.740601 691.044434,406.732971 
	C692.461426,406.726654 693.455505,407.159454 693.144226,408.693695 
	C692.015015,414.258759 695.478577,413.468048 699.203125,412.982788 
z"/>
<path fill="#D0F8E4" opacity="1.000000" stroke="none" 
	d="
M608.462891,221.885986 
	C607.871277,215.154312 607.233215,208.535507 603.430603,202.444229 
	C594.011536,187.356094 570.857178,183.226242 556.515747,199.094925 
	C556.208679,196.420837 554.701599,192.926971 559.763672,192.817444 
	C561.132202,192.787827 561.980774,191.072678 561.711304,189.752518 
	C560.901367,185.784760 563.905029,185.751846 565.859009,186.343979 
	C569.994568,187.597183 573.621521,186.592896 577.502563,185.476959 
	C581.557007,184.311142 588.058411,183.949173 589.256348,186.417969 
	C591.718201,191.491211 596.948486,190.628159 599.814514,193.827057 
	C600.124390,194.172913 600.777893,194.697357 600.970642,194.591293 
	C607.935730,190.759445 606.522217,197.328079 606.845337,199.933136 
	C607.355164,204.042328 608.329163,207.874390 609.496094,211.820694 
	C610.403870,214.890350 611.063782,218.611115 608.462891,221.885986 
z"/>
<path fill="#232323" opacity="1.000000" stroke="none" 
	d="
M732.210815,424.663269 
	C731.942871,426.775818 733.315918,429.363770 729.746155,429.197906 
	C726.464661,429.045441 727.934692,426.655182 727.760681,425.152039 
	C727.551208,423.343018 727.697449,421.493591 727.676025,419.661835 
	C727.657288,418.061188 727.330811,416.546021 725.411316,416.379059 
	C723.440430,416.207611 722.217102,417.379974 721.999390,419.253876 
	C721.750732,421.393280 721.775818,423.567596 721.740540,425.727722 
	C721.714783,427.306763 722.466675,429.115173 719.661377,429.225677 
	C716.631775,429.345001 717.112000,427.404297 717.135315,425.595978 
	C717.148254,424.596558 717.132324,423.596832 717.131958,422.597229 
	C717.128784,413.130859 717.129028,413.133118 726.374146,412.884857 
	C729.742371,412.794434 731.804504,414.299103 732.070435,417.750885 
	C732.236511,419.905762 732.166321,422.078888 732.210815,424.663269 
z"/>
<path fill="#73B2DA" opacity="1.000000" stroke="none" 
	d="
M722.449524,381.993225 
	C718.883911,381.368713 719.132568,378.896576 719.122742,376.578308 
	C719.080811,366.682220 719.048279,356.786133 718.921448,346.424255 
	C718.877014,342.620789 718.923523,339.283112 718.920654,335.493622 
	C721.797607,331.166443 725.840454,333.122589 729.432007,333.188019 
	C731.112183,333.218567 730.932373,335.097900 730.934570,336.399994 
	C730.956970,349.997253 730.945374,363.594543 730.990784,377.191681 
	C730.996094,378.798706 730.540405,380.107147 729.183472,381.506897 
	C726.956360,381.868103 724.919678,381.906830 722.449524,381.993225 
z"/>
<path fill="#232323" opacity="1.000000" stroke="none" 
	d="
M637.843262,427.787720 
	C637.836426,424.742920 637.870056,422.085052 637.803589,419.429688 
	C637.762390,417.786560 637.100525,416.498383 635.240051,416.364899 
	C633.432617,416.235229 632.620544,417.349152 632.093262,418.926666 
	C631.273499,421.378754 631.688782,423.876068 631.720032,426.345673 
	C631.742371,428.114685 631.501526,429.174133 629.362549,429.192627 
	C627.073608,429.212402 627.151489,427.959381 627.215576,426.297699 
	C627.343567,422.980103 627.428955,419.648804 627.269348,416.335846 
	C627.136658,413.583893 628.094788,413.140747 630.782837,413.289062 
	C642.479797,413.934448 642.400757,413.810547 642.237671,426.009552 
	C642.182556,430.131683 640.479309,429.838257 637.843262,427.787720 
z"/>
<path fill="#232323" opacity="1.000000" stroke="none" 
	d="
M563.528992,423.773193 
	C562.953125,420.863007 564.998657,416.643250 560.820679,416.524017 
	C556.429138,416.398743 557.668091,420.654480 557.431946,423.436493 
	C557.319702,424.758881 557.361328,426.097717 557.390747,427.427856 
	C557.428833,429.147736 556.272156,429.177765 555.044434,429.184082 
	C553.789917,429.190521 552.747009,429.086914 552.778625,427.373627 
	C552.855530,423.216187 552.830444,419.056946 552.864746,414.898590 
	C552.872314,413.978516 553.480591,412.888611 554.232971,413.249359 
	C557.382568,414.759460 560.295837,412.529175 563.347351,412.950836 
	C566.342468,413.364685 567.720337,415.206238 567.889038,417.985321 
	C568.050049,420.636627 567.864990,423.307129 567.946289,425.965698 
	C567.999512,427.705597 568.289551,429.263550 565.616699,429.188080 
	C562.831055,429.109436 563.509094,427.282532 563.485413,425.719452 
	C563.477844,425.220978 563.511841,424.721863 563.528992,423.773193 
z"/>
<path fill="#232323" opacity="1.000000" stroke="none" 
	d="
M543.055237,412.685181 
	C546.783447,413.212067 548.346863,415.321350 548.300598,418.761597 
	C548.262634,421.587189 548.220093,424.416565 548.325684,427.238800 
	C548.387939,428.901764 547.528259,429.189026 546.182190,429.172760 
	C544.852539,429.156708 543.913391,428.816620 543.941040,427.228516 
	C543.984436,424.735931 544.020630,422.241455 543.968384,419.749664 
	C543.936096,418.211761 543.699463,416.633759 541.753235,416.380341 
	C539.742371,416.118530 538.765503,417.342621 538.178833,419.097290 
	C537.416321,421.378021 537.776733,423.713318 537.754395,426.025085 
	C537.739685,427.553650 538.069763,429.073761 535.750000,429.199921 
	C533.024719,429.348053 533.454041,427.506226 533.454651,425.874329 
	C533.454712,425.708069 533.453796,425.541809 533.453796,425.375549 
	C533.453796,421.720306 532.376587,417.575531 533.753235,414.545746 
	C535.165283,411.437866 539.941772,415.006165 543.055237,412.685181 
z"/>
<path fill="#232323" opacity="1.000000" stroke="none" 
	d="
M505.815491,429.611755 
	C496.689148,428.168121 492.806793,420.154449 497.055328,412.276093 
	C499.176666,408.342316 506.607513,406.390015 510.325867,408.750183 
	C511.116119,409.251831 511.629272,409.753693 511.196655,410.723389 
	C510.689117,411.861053 510.098419,412.432800 508.559753,412.262695 
	C501.660004,411.499878 498.243896,416.005524 500.720947,422.213379 
	C501.905945,425.183044 503.973114,426.113281 506.972687,425.848541 
	C508.221924,425.738281 510.133453,424.004059 510.639252,426.464783 
	C511.179016,429.090790 508.992035,429.200439 507.113007,429.316925 
	C506.788208,429.337036 506.470520,429.472565 505.815491,429.611755 
z"/>
<path fill="#232323" opacity="1.000000" stroke="none" 
	d="
M680.340027,412.897858 
	C680.103149,417.667419 680.024475,421.983459 680.085022,426.297485 
	C680.108765,427.991882 679.999268,429.161102 677.812927,429.198090 
	C675.648621,429.234650 675.426147,428.147919 675.465027,426.407349 
	C675.546570,422.756622 675.393616,419.100250 675.492310,415.450409 
	C675.556030,413.092865 675.075073,411.493500 672.242310,411.861694 
	C670.614197,412.073364 669.622437,411.433502 669.765564,409.684448 
	C669.930054,407.673340 671.478638,408.088409 672.771240,408.094177 
	C675.926392,408.108276 679.082031,408.085724 682.236450,408.138916 
	C683.603271,408.161926 685.500122,407.437744 685.580261,409.860626 
	C685.656250,412.159668 683.913879,411.833435 682.428162,411.911804 
	C681.795837,411.945129 681.178223,412.257782 680.340027,412.897858 
z"/>
<path fill="#232323" opacity="1.000000" stroke="none" 
	d="
M516.185669,415.154541 
	C520.040222,412.042328 523.839844,412.050018 527.377563,414.720917 
	C530.215027,416.863190 530.739258,423.036255 528.568115,426.242157 
	C526.303284,429.586334 522.896118,430.063171 519.328918,429.056488 
	C514.101074,427.581116 512.690491,421.637024 516.185669,415.154541 
z"/>
<path fill="#D0F8E4" opacity="1.000000" stroke="none" 
	d="
M555.005615,200.243774 
	C548.177002,212.335754 547.517212,224.237991 556.122498,235.928925 
	C560.016663,241.219406 565.461792,244.181854 571.816650,246.327728 
	C571.347412,248.211700 569.593628,248.405823 568.689209,247.760712 
	C565.078308,245.185287 564.342041,247.914169 563.560242,250.381836 
	C561.491211,250.210342 562.282898,248.609726 561.853760,247.709015 
	C560.705505,245.299042 559.561096,243.365402 557.235718,241.363358 
	C552.358276,237.164124 546.786133,232.826706 545.291382,225.780975 
	C545.087952,224.822418 544.726501,223.311661 545.193481,222.887009 
	C549.998840,218.517105 547.043884,212.253143 549.177673,207.298309 
	C550.384705,204.495529 550.856262,201.044922 555.005615,200.243774 
z"/>
<path fill="#D6F1FA" opacity="1.000000" stroke="none" 
	d="
M440.928467,324.937592 
	C440.763214,317.025970 444.854706,313.430511 453.061737,314.229004 
	C454.183807,314.338196 455.190704,314.920959 456.391876,314.333984 
	C464.713684,310.267242 471.216461,315.758606 478.178497,318.628754 
	C480.451263,319.565704 480.437378,322.089661 481.122498,324.465942 
	C481.188995,324.829926 480.961456,325.041382 480.849426,325.148956 
	C479.421387,325.794373 478.595062,324.942566 477.673676,324.234375 
	C467.020142,316.045746 454.517639,316.106293 444.151215,324.388824 
	C443.498749,324.910095 442.850739,325.394409 441.619385,325.352844 
	C441.253571,325.240204 441.037720,325.037506 440.928467,324.937592 
z"/>
<path fill="#73B2DA" opacity="1.000000" stroke="none" 
	d="
M709.150024,428.664520 
	C706.704895,429.458160 707.442078,427.832428 707.442505,426.921417 
	C707.445374,420.964569 707.518738,415.007721 707.549072,409.050812 
	C707.558167,407.258942 708.349060,406.277679 710.201538,406.234131 
	C712.314880,406.184479 713.225098,407.215942 713.022705,409.289062 
	C712.895630,410.591095 712.766968,411.892975 712.487305,413.538177 
	C710.208374,415.100037 710.575745,417.180115 710.451843,419.138306 
	C710.256775,422.223419 711.085022,425.428253 709.150024,428.664520 
z"/>
<path fill="#CBECF9" opacity="1.000000" stroke="none" 
	d="
M652.600830,331.014526 
	C654.393982,333.079529 658.471313,330.698120 658.722290,334.897278 
	C656.105774,336.655121 653.877380,334.844666 651.525940,334.475525 
	C645.269531,333.493500 639.539551,335.183624 633.520874,337.329895 
	C633.155640,337.157257 632.963013,336.969971 632.863281,336.877167 
	C636.386658,330.887421 643.083130,328.896545 652.600830,331.014526 
z"/>
<path fill="#232323" opacity="1.000000" stroke="none" 
	d="
M709.288635,429.044006 
	C708.785095,424.831818 708.771606,420.688446 708.620667,416.550110 
	C708.546448,414.514099 709.113892,413.318878 711.861023,413.738220 
	C712.369080,415.338257 712.402527,416.795105 712.467041,418.685669 
	C713.327271,422.077240 713.072449,425.061584 712.509277,428.449097 
	C711.442200,428.938171 710.582092,429.026550 709.288635,429.044006 
z"/>
<path fill="#CBECF9" opacity="1.000000" stroke="none" 
	d="
M580.768555,365.062286 
	C581.461487,369.101013 583.492249,372.502747 585.389404,376.339661 
	C579.058899,375.226196 577.776428,372.274933 580.768555,365.062286 
z"/>
<path fill="#232323" opacity="1.000000" stroke="none" 
	d="
M779.846619,429.299744 
	C777.229797,429.789642 776.244080,428.756042 776.650024,426.400604 
	C776.930054,424.775238 778.305786,424.686188 779.341003,425.041870 
	C781.795227,425.885071 781.540222,427.478149 779.846619,429.299744 
z"/>
<path fill="#232323" opacity="1.000000" stroke="none" 
	d="
M788.579529,429.125061 
	C786.091797,430.138580 784.899841,429.298889 784.859314,426.967255 
	C784.830322,425.301636 785.950256,424.622528 787.443481,424.939484 
	C790.006897,425.483429 789.630981,427.196869 788.579529,429.125061 
z"/>
<path fill="#232323" opacity="1.000000" stroke="none" 
	d="
M769.488525,429.346344 
	C767.147644,427.851288 767.238708,426.246429 769.231445,425.107208 
	C770.366821,424.458130 771.890564,424.775116 772.355469,426.446869 
	C772.965820,428.641663 771.859436,429.471313 769.488525,429.346344 
z"/>
<path fill="#E3F6FB" opacity="1.000000" stroke="none" 
	d="
M681.983032,316.677856 
	C679.701172,317.225525 677.419739,317.375671 674.723450,317.583252 
	C673.818176,314.239105 676.774841,314.725952 678.514343,314.172729 
	C680.086548,313.672638 681.895020,313.831879 681.983032,316.677856 
z"/>
<path fill="#73B2DA" opacity="1.000000" stroke="none" 
	d="
M712.623657,428.762207 
	C712.279358,425.879791 712.256470,422.909790 712.365845,419.529602 
	C714.291931,422.227539 713.564453,425.453613 712.623657,428.762207 
z"/>
<path fill="#D0F8E4" opacity="1.000000" stroke="none" 
	d="
M574.130981,247.389572 
	C576.730042,246.956451 579.399658,246.904404 582.496704,246.969803 
	C580.258057,250.397400 577.241150,249.228485 574.130981,247.389572 
z"/>
<path fill="#CBECF9" opacity="1.000000" stroke="none" 
	d="
M587.969482,363.657623 
	C586.901306,364.741821 585.727966,364.766083 584.254272,364.131348 
	C585.091370,362.398590 586.210754,360.997894 587.969482,363.657623 
z"/>
<path fill="#D0F8E4" opacity="1.000000" stroke="none" 
	d="
M593.996582,286.995178 
	C593.913757,287.032013 593.834473,287.073669 593.882324,287.061096 
	C594.009521,287.006897 594.000000,287.000000 593.996582,286.995178 
z"/>
<path fill="#2D8ECE" opacity="1.000000" stroke="none" 
	d="
M441.197815,325.619293 
	C448.843658,317.161438 458.210388,315.746002 468.609344,317.735321 
	C473.482483,318.667572 476.869476,321.663696 480.425964,325.138428 
	C481.744141,328.235870 482.874054,331.180786 483.718140,334.205536 
	C484.381287,336.581818 483.533295,338.062744 480.748108,338.025604 
	C476.875824,337.973969 472.829285,339.059021 472.377502,332.755798 
	C472.092773,328.783417 468.447632,326.529175 464.581329,326.136108 
	C459.836517,325.653656 454.743530,325.019989 451.323212,329.680664 
	C448.859283,333.038147 449.596161,337.195587 452.859222,339.896301 
	C456.453979,342.871552 460.993622,343.529755 465.180939,345.079865 
	C471.071442,347.260437 477.440155,348.986023 481.171326,354.529449 
	C488.556396,365.501465 482.509216,378.441986 468.540375,380.908356 
	C460.473297,382.332672 452.313080,381.926147 445.047516,376.958801 
	C440.466522,373.826782 438.113251,369.626923 437.425659,364.192261 
	C437.099304,361.612366 438.082428,361.016846 440.368988,360.902313 
	C444.473785,360.696777 447.468567,360.804474 449.183594,366.011841 
	C451.864716,374.152649 466.826691,375.536011 471.953186,368.621307 
	C474.358063,365.377594 473.177490,360.148193 469.567963,357.752411 
	C464.231232,354.210144 457.828339,353.394562 452.078888,350.816101 
	C439.756470,345.289825 436.587769,338.708862 441.197815,325.619293 
z"/>
<path fill="#2D8ECE" opacity="1.000000" stroke="none" 
	d="
M513.356384,381.437775 
	C497.465210,382.533478 487.706207,372.243256 488.539856,356.606689 
	C489.045319,347.125885 491.376984,338.714874 500.633698,334.860779 
	C514.839294,328.946289 526.251648,334.185577 528.891052,349.540039 
	C530.819641,360.759064 530.329712,360.885559 519.004578,360.826660 
	C513.841125,360.799774 508.676483,360.714264 503.514313,360.787903 
	C498.944183,360.853058 498.257751,362.242645 500.617767,366.277618 
	C505.221008,374.147858 512.943909,375.670624 519.834229,369.345367 
	C523.515137,365.966400 525.538940,368.369537 527.651062,370.385590 
	C530.511292,373.115692 527.100281,374.587646 525.684937,375.810547 
	C522.300964,378.734406 518.605469,381.385040 513.356384,381.437775 
z"/>
<path fill="#278CCD" opacity="1.000000" stroke="none" 
	d="
M573.936401,345.569519 
	C573.978394,356.168060 573.851257,366.326050 574.080078,376.476044 
	C574.169312,380.434448 572.490784,381.157745 568.990112,381.084290 
	C565.652222,381.014282 563.726257,380.645813 563.859680,376.519257 
	C564.144836,367.705200 564.027954,358.874878 563.931091,350.052826 
	C563.862915,343.845703 561.972046,341.869873 556.512817,341.804901 
	C550.231140,341.730194 546.395813,344.661743 546.276245,350.108185 
	C546.086365,358.759949 546.081177,367.420135 546.229004,376.072784 
	C546.288513,379.555939 545.489563,381.250793 541.517639,381.098877 
	C538.016907,380.964996 535.888794,380.598633 535.957581,376.276550 
	C536.164246,363.295349 536.137756,350.307892 535.988220,337.325348 
	C535.950012,334.005066 537.137329,332.511658 540.310669,333.142395 
	C546.092590,334.291687 551.780640,332.899323 557.512024,332.814514 
	C567.530884,332.666260 571.009521,335.265076 573.936401,345.569519 
z"/>
<path fill="#FFFFFF" opacity="1.000000" stroke="none" 
	d="
M530.378906,376.007080 
	C530.806824,374.802673 531.305420,373.847809 532.489624,374.667999 
	C532.758240,374.854034 532.892151,375.617950 532.739197,375.959717 
	C532.209106,377.144073 531.346680,377.098328 530.378906,376.007080 
z"/>
<path fill="#FFFFFF" opacity="1.000000" stroke="none" 
	d="
M487.043579,370.369934 
	C487.341187,370.739014 487.381500,371.105835 487.421814,371.472687 
	C487.161255,371.470093 486.900726,371.467529 486.640137,371.464935 
	C486.688843,371.099182 486.737549,370.733429 487.043579,370.369934 
z"/>
<path fill="#2D8ECE" opacity="1.000000" stroke="none" 
	d="
M790.922729,366.716309 
	C797.175415,374.659729 803.658020,375.548706 810.589233,369.015381 
	C814.133911,365.674225 815.942871,368.234650 817.959229,370.160126 
	C820.537354,372.622101 818.118896,374.434082 816.505005,375.931946 
	C809.734314,382.215546 801.596069,383.406128 793.266296,380.482239 
	C785.160156,377.636810 780.451538,371.613617 779.553528,362.618835 
	C778.694092,354.010529 779.441589,346.092224 785.266724,339.165009 
	C791.398132,331.873505 799.542114,331.372803 807.601746,333.455658 
	C815.100464,335.393524 818.224792,341.881866 819.343140,349.271606 
	C821.073914,360.708344 820.965088,360.868286 809.835815,360.844757 
	C804.840088,360.834229 799.838989,360.951050 794.850159,360.757660 
	C790.460144,360.587463 788.977783,362.196045 790.922729,366.716309 
z"/>
<path fill="#2D8ECE" opacity="1.000000" stroke="none" 
	d="
M758.578552,358.481293 
	C761.021729,350.852112 763.290344,343.576843 765.649292,336.330963 
	C766.517944,333.662659 774.103027,331.599487 776.018738,333.505402 
	C777.414307,334.893860 776.094971,336.352325 775.643066,337.628113 
	C772.258606,347.183411 768.746277,356.693359 765.306030,366.229034 
	C763.955505,369.972382 762.552429,373.705566 761.425781,377.518005 
	C760.622192,380.237335 759.009338,381.126495 756.300598,381.129730 
	C753.564880,381.132996 751.940979,380.028351 751.028137,377.512878 
	C747.348633,367.373047 743.625916,357.248871 739.916687,347.119843 
	C738.550720,343.389801 737.219604,339.646149 735.790894,335.940247 
	C735.041382,333.996155 735.611633,333.313019 737.661621,333.037842 
	C744.161499,332.165436 745.691833,333.049713 747.788391,339.385345 
	C749.824280,345.537872 751.743530,351.732880 753.959717,357.819763 
	C754.716858,359.899139 755.775330,363.717438 758.578552,358.481293 
z"/>
<path fill="#2D8ECE" opacity="1.000000" stroke="none" 
	d="
M720.390198,325.630737 
	C718.341980,321.893829 719.137268,319.067871 722.601440,317.515625 
	C725.407471,316.258240 728.186340,316.821594 730.046570,319.610077 
	C731.822083,322.271698 731.272949,324.826416 728.920593,326.671417 
	C726.103516,328.880829 723.164429,328.765167 720.390198,325.630737 
z"/>
<path fill="#FFFFFF" opacity="1.000000" stroke="none" 
	d="
M758.485840,343.342102 
	C761.653931,343.144897 761.106934,344.948151 760.575500,346.565521 
	C760.223022,347.638062 759.517273,348.589111 759.069275,349.637115 
	C758.591064,350.755554 759.751160,353.154572 756.989441,352.424866 
	C754.957458,351.887909 754.734070,350.170166 755.069153,348.428802 
	C755.454895,346.424042 756.448120,344.726349 758.485840,343.342102 
z"/>
<path fill="#28D324" opacity="1.000000" stroke="none" 
	d="
M636.979980,287.065918 
	C625.777466,295.524658 610.902527,295.758575 601.019043,287.869446 
	C590.230652,279.257996 586.885803,264.994202 592.685303,252.331711 
	C598.146240,240.408417 611.809753,233.847183 625.193604,236.721237 
	C637.692078,239.405182 647.074158,251.124863 647.345520,263.994354 
	C647.540894,273.258270 644.295593,280.838440 636.979980,287.065918 
z"/>
<path fill="#1BC0F4" opacity="1.000000" stroke="none" 
	d="
M685.540771,204.652924 
	C694.542786,220.691162 685.792603,243.511597 664.178284,246.533890 
	C643.079102,249.484100 628.648499,231.091019 632.352112,212.341949 
	C634.641052,200.754425 644.579102,191.705185 654.943542,189.985458 
	C667.726074,187.864502 678.897278,193.182648 685.540771,204.652924 
z"/>
<path fill="#2D8ECE" opacity="1.000000" stroke="none" 
	d="
M633.053467,337.478516 
	C641.037537,331.838959 649.300537,331.302002 658.285889,335.226654 
	C658.656006,335.269379 658.705994,335.246063 658.732727,335.239441 
	C659.994812,335.807556 660.796875,336.855621 661.696045,338.186768 
	C662.486755,339.811920 663.215759,341.115204 664.114624,342.695068 
	C666.378601,347.858643 668.830811,352.667816 667.400757,358.641113 
	C666.734680,360.149048 665.983154,360.893036 664.336914,360.961304 
	C660.243530,362.648926 656.259644,362.244110 652.333130,362.313995 
	C649.519714,362.364044 646.699890,362.214417 643.892639,362.366882 
	C642.003052,362.469574 639.290405,361.468109 638.493408,363.587646 
	C637.698181,365.702393 639.837463,367.465515 641.357056,368.957092 
	C645.197144,372.726471 650.595581,372.902252 655.724670,368.685181 
	C659.297119,365.747986 661.817932,366.102295 664.726440,369.732544 
	C665.597107,371.355011 666.024292,372.714508 664.928467,374.370697 
	C659.192932,379.022491 653.313293,381.958313 645.676025,381.390381 
	C634.651367,380.570618 626.448975,372.806946 625.833008,361.751038 
	C625.337524,352.856750 625.984863,344.421021 633.053467,337.478516 
z"/>
<path fill="#FFFFFF" opacity="1.000000" stroke="none" 
	d="
M598.230042,362.953308 
	C601.915344,362.279358 603.450439,365.572784 606.151367,366.333801 
	C607.242493,366.641235 607.163269,368.126099 606.396851,368.873901 
	C603.857544,371.351471 600.895142,371.554413 597.633606,370.339569 
	C594.030396,368.997345 594.692871,365.590179 594.596924,363.121094 
	C594.524170,361.247925 596.699646,363.312225 598.230042,362.953308 
z"/>
<path fill="#F7D918" opacity="1.000000" stroke="none" 
	d="
M725.817505,279.668762 
	C718.705627,290.116974 709.230347,294.652466 697.027893,292.566437 
	C682.289978,290.046906 675.113892,278.848511 673.575867,268.208252 
	C671.949951,256.960388 676.483032,247.933197 685.383606,241.409180 
	C694.436340,234.773590 704.575500,234.034470 714.482849,239.276703 
	C726.971863,245.884888 732.277954,257.017914 729.904907,270.824951 
	C729.393066,273.802734 727.347473,276.516876 725.817505,279.668762 
z"/>
<path fill="#D0F8E4" opacity="1.000000" stroke="none" 
	d="
M580.695801,416.193237 
	C582.470093,417.640167 582.906128,419.000916 580.619141,419.461212 
	C579.205994,419.745667 576.684509,420.487915 576.435364,418.398834 
	C576.184998,416.300049 578.248901,415.572266 580.695801,416.193237 
z"/>
<path fill="#FFFFFF" opacity="1.000000" stroke="none" 
	d="
M757.323975,422.424438 
	C758.367310,423.127014 759.233826,423.562836 758.895691,424.564514 
	C758.532959,425.639404 750.386475,428.187317 749.668091,427.354950 
	C748.063049,425.495087 745.511597,426.641479 742.751099,424.639648 
	C747.567505,423.342285 749.418091,420.369385 749.315247,416.076416 
	C749.302795,415.556183 750.838562,414.574249 751.674194,414.554810 
	C753.031372,414.523285 752.857361,415.858063 752.773743,416.832336 
	C752.510315,419.901611 754.347778,421.336517 757.323975,422.424438 
z"/>
<path fill="#D0F8E4" opacity="1.000000" stroke="none" 
	d="
M745.592224,432.738403 
	C744.311768,433.191772 743.396057,433.663544 742.444519,433.752563 
	C740.694153,433.916382 738.492615,433.396210 738.647400,431.558685 
	C738.860840,429.024353 741.470276,429.117798 743.406128,429.354736 
	C745.050476,429.555939 748.176941,429.124573 745.592224,432.738403 
z"/>
<path fill="#D0F8E4" opacity="1.000000" stroke="none" 
	d="
M744.256104,420.417938 
	C741.496948,421.745300 740.145142,420.873505 740.058289,418.204346 
	C740.001221,416.449585 740.962219,415.090149 742.715027,415.382263 
	C745.629150,415.867889 744.790894,418.185394 744.256104,420.417938 
z"/>
<path fill="#FFFFFF" opacity="1.000000" stroke="none" 
	d="
M760.285706,418.356201 
	C758.582886,418.773254 757.215027,418.461029 757.678345,416.966461 
	C758.107483,415.582520 759.614746,416.267303 761.063782,416.496338 
	C761.206177,417.091187 760.984863,417.484161 760.285706,418.356201 
z"/>
<path fill="#CBECF9" opacity="1.000000" stroke="none" 
	d="
M664.975952,369.651611 
	C661.411194,366.936096 658.695862,367.851593 655.035278,370.745697 
	C648.524353,375.893311 639.281250,372.443970 636.493835,364.556976 
	C635.382507,361.412659 637.056274,360.798645 639.700684,360.817627 
	C647.493347,360.873627 655.286560,360.859589 663.542236,360.958435 
	C663.567078,363.756531 661.415222,362.743378 659.441406,362.962280 
	C656.270569,364.372253 653.263489,364.223969 650.275879,364.252716 
	C647.655334,364.277924 644.986816,364.118896 642.524902,365.626556 
	C646.269226,369.270081 649.590698,369.798157 653.471924,367.517517 
	C655.305298,366.440216 656.943420,364.834167 659.665588,365.153015 
	C662.543274,365.378723 663.947021,367.111115 664.975952,369.651611 
z"/>
<path fill="#FFFFFF" opacity="1.000000" stroke="none" 
	d="
M659.727356,364.825012 
	C658.441406,365.947021 656.631104,366.632233 655.432739,367.897125 
	C651.191040,372.374176 646.707153,369.665222 642.328186,368.516357 
	C641.111084,368.197021 640.046326,366.980957 640.170715,365.468079 
	C640.300842,363.885132 641.781799,364.164734 642.829041,363.809021 
	C647.955444,362.067871 653.362915,363.718872 658.786621,362.708618 
	C659.195862,363.525024 659.339783,364.089569 659.727356,364.825012 
z"/>
<path fill="#CBECF9" opacity="1.000000" stroke="none" 
	d="
M667.557861,358.905762 
	C666.798889,353.801453 665.875366,348.699829 664.246094,343.357635 
	C668.756836,347.045471 670.151123,353.108917 667.557861,358.905762 
z"/>
<path fill="#CBECF9" opacity="1.000000" stroke="none" 
	d="
M661.810120,338.118225 
	C660.788879,337.631439 659.820129,336.754211 658.805420,335.554901 
	C660.678162,334.964600 661.698181,335.814117 661.810120,338.118225 
z"/>
<path fill="#D0F8E4" opacity="1.000000" stroke="none" 
	d="
M656.535278,430.305298 
	C657.123718,432.119629 655.970398,432.516785 654.939270,433.089447 
	C652.987610,434.173309 651.096375,434.058228 649.288757,432.868164 
	C648.532532,432.370270 648.218689,431.444733 648.843933,430.713562 
	C650.173584,429.158905 652.044556,429.086700 653.899963,429.314453 
	C654.704224,429.413147 655.475098,429.783447 656.535278,430.305298 
z"/>
<path fill="#D0F8E4" opacity="1.000000" stroke="none" 
	d="
M654.864441,417.470032 
	C655.010559,419.712921 654.529663,421.179077 652.292786,421.090759 
	C651.266785,421.050232 650.334900,420.613007 650.263916,419.380005 
	C650.189514,418.085175 649.936951,416.639160 651.301086,415.827667 
	C652.882263,414.887024 654.118469,415.310913 654.864441,417.470032 
z"/>
<path fill="#278CCD" opacity="1.000000" stroke="none" 
	d="
M729.094177,341.107178 
	C729.096436,352.375397 729.068115,363.159393 729.123718,373.942932 
	C729.138733,376.850494 728.979126,379.210114 725.052612,379.228607 
	C721.171204,379.246948 720.882690,376.983246 720.897217,374.024414 
	C720.951721,362.909088 720.888184,351.793213 720.923523,340.677704 
	C720.932495,337.849457 719.961121,334.646210 724.982727,334.631439 
	C729.973572,334.616791 729.033569,337.749451 729.094177,341.107178 
z"/>
<path fill="#D0F8E4" opacity="1.000000" stroke="none" 
	d="
M519.114319,418.136902 
	C521.240845,415.600403 523.438599,415.244080 524.706360,418.150177 
	C525.837463,420.742859 526.169800,423.914459 523.287170,425.761780 
	C521.458191,426.933899 519.823181,425.769104 518.983765,423.782806 
	C518.238403,422.019257 518.119995,420.256195 519.114319,418.136902 
z"/>
<path fill="#D6F1FA" opacity="1.000000" stroke="none" 
	d="
M513.757812,352.204712 
	C510.132935,352.122314 506.971436,352.082703 503.812408,351.971832 
	C499.870300,351.833405 499.284302,350.214569 501.275116,346.867798 
	C503.227448,343.585693 505.571411,341.707733 509.615692,341.698730 
	C513.478699,341.690125 515.814209,343.346680 517.523804,346.601929 
	C519.763062,350.865723 519.273071,351.800659 513.757812,352.204712 
z"/>
<path fill="#D6F1FA" opacity="1.000000" stroke="none" 
	d="
M793.663818,352.033508 
	C791.399109,351.723267 789.899414,351.098358 790.686890,348.800171 
	C792.014465,344.926208 794.313599,342.183502 798.771667,341.829407 
	C803.120361,341.484009 806.671997,342.399780 808.446594,346.913757 
	C809.951294,350.741058 809.070679,352.210602 805.023621,352.223999 
	C801.377991,352.236084 797.731934,352.122742 793.663818,352.033508 
z"/>
<path fill="#D6F1FA" opacity="1.000000" stroke="none" 
	d="
M649.445435,341.979736 
	C651.543701,342.532959 652.641541,343.784607 653.718262,345.054596 
	C655.109741,346.695892 655.605774,348.717285 655.021118,350.655243 
	C654.296997,353.055267 651.994446,352.153870 650.305908,352.168884 
	C646.822998,352.199921 643.337830,352.045929 639.854614,351.934174 
	C637.357666,351.854095 636.834106,350.789520 637.658630,348.368408 
	C639.330322,343.459534 642.136108,341.731415 649.445435,341.979736 
z"/>
</svg>