<svg version="1.1" id="Layer_1" xmlns="http://www.w3.org/2000/svg" xmlns:xlink="http://www.w3.org/1999/xlink" x="0px" y="0px"
	 width="100%" viewBox="0 0 293 293" enable-background="new 0 0 293 293" xml:space="preserve">
<path fill="#000000" opacity="1.000000" stroke="none" 
	d="
M180.775864,1.312468 
	C217.484573,1.000000 253.969269,1.037410 290.453522,0.927355 
	C293.301880,0.918763 294.095764,1.335013 294.092072,4.450891 
	C293.979279,99.743820 293.977875,195.036926 294.092377,290.329834 
	C294.096375,293.646729 293.105743,294.065857 290.173157,294.063477 
	C195.046768,293.986481 99.920280,293.984741 4.793896,294.069977 
	C1.782253,294.072693 0.909536,293.532043 0.913180,290.296906 
	C1.020304,195.170547 1.027170,100.044037 0.894860,4.917766 
	C0.889870,1.330230 1.822597,0.854472 5.080530,0.909518 
	C18.071383,1.129009 31.068123,1.000000 44.531342,1.000000 
	C45.344131,1.376954 45.531105,1.822964 45.505074,2.692839 
	C44.753510,4.216420 43.625793,4.684219 42.076729,5.117274 
	C38.996857,5.399239 36.553459,6.524564 33.809521,7.772129 
	C32.340630,8.494294 31.158958,9.052535 29.719994,9.819784 
	C27.508226,10.932321 25.779818,12.189559 23.862738,13.755586 
	C21.206905,16.138487 19.064951,18.561764 16.575485,21.096394 
	C16.237198,21.515833 16.103920,21.681475 15.564833,22.312786 
	C15.034689,22.937302 14.910353,23.096142 14.612393,23.501846 
	C14.322315,23.913071 14.205860,24.077431 13.915604,24.491009 
	C13.626508,24.909319 13.511212,25.078407 13.049035,25.764496 
	C12.237416,26.987680 11.811744,27.713781 11.502403,28.846437 
	C11.386656,29.597155 11.297655,30.022783 11.084368,30.756611 
	C10.900833,31.272625 10.818037,31.475601 10.586945,31.972408 
	C10.326096,32.454582 10.213543,32.642933 9.931267,33.112694 
	C8.924047,35.234474 8.370642,37.150719 8.113176,39.510136 
	C7.155899,45.415115 7.004887,50.963772 8.574522,56.802605 
	C8.755174,57.348522 8.846961,57.557415 9.044889,58.085827 
	C9.328114,59.029125 9.394077,59.673962 9.626209,60.590061 
	C9.804315,61.059673 9.867953,61.248226 10.015702,61.718754 
	C10.259445,62.552212 10.368042,63.117077 10.669235,63.917839 
	C10.889470,64.340294 10.976878,64.511177 11.196728,64.940285 
	C11.574553,65.749657 11.944154,66.220634 12.498187,66.955521 
	C18.725979,77.741425 27.167341,85.280678 39.451424,88.532753 
	C42.117767,89.547920 44.623363,89.440216 47.402168,89.933304 
	C50.477978,90.693245 53.190231,90.761185 56.257328,89.944794 
	C62.454346,89.233864 68.080887,87.938721 73.421539,84.533821 
	C75.965508,83.668732 77.964378,82.595062 79.729660,80.531952 
	C80.248390,79.911835 80.573929,79.583488 81.173317,79.037796 
	C86.352196,74.763161 90.106384,69.865639 92.474274,63.537975 
	C92.963715,62.053486 93.501122,60.967098 94.027924,59.479305 
	C96.256050,53.702438 97.238235,48.173672 95.480850,42.062695 
	C93.167053,27.861948 85.700829,17.632120 73.863434,10.371199 
	C69.413292,7.641538 64.013954,7.538457 59.223732,4.742465 
	C58.779781,4.289227 58.631428,4.078782 58.364861,3.498326 
	C58.199837,2.599376 58.292778,2.096213 58.762524,1.309372 
	C95.020897,1.000000 131.041794,1.000000 167.531342,1.000000 
	C169.461777,3.475168 167.050018,3.857872 165.574158,5.114618 
	C164.837540,5.550047 164.400925,5.761450 163.618011,6.067096 
	C160.083038,6.423598 157.035568,7.080875 154.387482,9.651255 
	C151.585342,12.507254 148.454834,14.448956 145.518982,17.126682 
	C144.818146,17.731224 144.322250,18.081003 143.666992,18.675226 
	C143.338577,18.998190 143.209305,19.126089 142.890930,19.442907 
	C142.578751,19.756056 142.455643,19.880285 141.975281,20.372017 
	C141.504715,20.864334 141.391373,20.989151 140.964996,21.510666 
	C140.458771,22.190460 140.272003,22.477726 139.963776,23.008034 
	C139.747940,23.411425 139.658798,23.575182 139.425934,23.985752 
	C138.790619,24.885584 138.520737,25.633375 138.252441,26.747185 
	C135.280304,33.081715 133.332718,39.428123 133.055832,46.046444 
	C132.682510,54.970127 135.064911,63.315403 140.366943,70.607170 
	C142.388062,73.386772 144.092438,76.477943 147.245209,78.800514 
	C154.042450,84.988869 161.619568,88.772675 170.700760,90.333618 
	C173.899780,90.618118 176.731201,90.469887 179.939606,90.507416 
	C193.955795,90.075722 203.663559,82.737862 211.989990,72.748932 
	C216.296997,67.581947 216.967331,60.984955 219.681305,54.804264 
	C222.001373,50.221004 221.150009,45.822697 220.498230,41.073883 
	C217.292007,27.933176 211.193680,17.175711 199.086609,10.223372 
	C196.338272,8.371081 193.588776,7.370769 190.444489,6.454856 
	C189.872971,6.392753 189.643356,6.364310 189.073212,6.258325 
	C187.858063,5.861237 187.018188,5.424483 185.702087,5.319637 
	C184.043625,4.501000 182.412796,4.632545 180.925781,3.408651 
	C180.461838,2.637549 180.423019,2.137782 180.775864,1.312468 
z"/>
<path fill="#A3E8F5" opacity="1.000000" stroke="none" 
	d="
M164.531647,4.471554 
	C164.780319,1.722687 168.062027,4.060227 168.311050,1.308346 
	C172.024551,1.000000 176.049088,1.000000 180.536819,1.000000 
	C181.011551,1.433355 181.023102,1.866710 181.063171,2.624061 
	C175.855957,5.087293 170.459167,5.822569 164.531647,4.471554 
z"/>
<path fill="#F9AB9C" opacity="1.000000" stroke="none" 
	d="
M58.535347,1.000000 
	C58.347343,1.355492 58.290073,1.783460 58.855370,2.716283 
	C55.212173,5.664032 51.141689,4.102335 46.804337,4.211722 
	C46.086773,3.939261 45.818264,3.784654 45.264999,3.262737 
	C45.193062,2.424111 45.405880,1.952798 45.309349,1.240742 
	C49.356899,1.000000 53.713799,1.000000 58.535347,1.000000 
z"/>
<path fill="#25A726" opacity="1.000000" stroke="none" 
	d="
M118.707977,74.781891 
	C147.528519,79.166954 166.261292,108.677361 154.628250,135.777084 
	C147.985870,151.250870 136.344254,160.712799 119.991447,163.829285 
	C103.174751,167.034195 83.884583,157.977951 74.660370,143.067383 
	C71.393822,137.787170 70.301224,131.532410 68.087662,125.420425 
	C68.907578,120.955162 68.346878,116.832733 68.303764,112.344635 
	C69.936501,108.090889 71.053787,103.940918 72.615463,99.990311 
	C78.128685,86.043259 89.194321,79.616043 102.681175,75.218582 
	C103.240822,75.236580 103.429878,75.290916 103.829193,75.138229 
	C104.039436,74.931198 104.007889,75.017319 103.964378,75.002838 
	C108.680321,73.929214 113.495689,74.728188 118.707977,74.781891 
z"/>
<path fill="#29A9DE" opacity="1.000000" stroke="none" 
	d="
M164.050461,4.385339 
	C169.565994,4.340002 174.768311,2.249125 180.631683,2.976788 
	C182.535492,3.105017 184.132645,2.542035 185.674210,3.999218 
	C186.800888,4.682343 187.733490,4.402018 188.860687,4.782567 
	C189.145508,4.949965 189.558884,5.022758 189.758133,5.088633 
	C191.480911,6.625164 194.718704,5.632471 194.881012,9.040800 
	C191.804749,10.717669 189.117157,9.599846 186.443695,8.741893 
	C173.332596,4.534369 162.409042,9.533461 152.107773,16.950722 
	C150.649414,18.000782 149.525986,19.591228 149.040268,21.418486 
	C148.394165,23.849182 147.068695,25.268301 144.567810,26.228331 
	C140.349060,27.847820 139.439209,32.439152 138.412323,35.964520 
	C136.481079,42.594578 134.844162,49.553631 137.334900,56.920891 
	C137.854935,63.249695 141.938828,67.280785 145.368271,72.044815 
	C146.326370,74.268425 148.230362,75.340439 149.289520,77.442596 
	C149.173080,78.796310 148.471130,79.375023 147.307236,79.951782 
	C142.320953,78.035400 140.523102,73.422310 138.072693,69.624130 
	C128.854492,55.335785 129.948090,40.596596 137.112091,25.446110 
	C137.612320,24.458183 138.377014,24.141048 138.814926,23.163994 
	C138.959579,22.921335 138.979904,22.988207 138.945053,22.990816 
	C139.426651,22.601374 139.489761,21.996494 139.793732,21.179173 
	C139.945038,20.924683 139.985107,20.987972 139.949036,20.977858 
	C140.191422,20.780277 140.445724,20.564386 140.824738,20.117939 
	C140.973633,19.915854 140.983978,19.984417 140.949585,19.980064 
	C141.190613,19.782419 141.445328,19.565094 141.827057,19.118456 
	C141.977936,18.916861 141.984406,18.987490 141.948944,18.987150 
	C142.465439,18.454634 142.801147,17.710497 143.714478,17.126657 
	C146.150620,13.636065 149.579742,11.825788 152.984039,9.451351 
	C155.965149,7.366348 158.766388,5.629601 162.547913,5.340164 
	C163.220901,5.024397 163.560196,4.830955 164.050461,4.385339 
z"/>
<path fill="#25A6D8" opacity="1.000000" stroke="none" 
	d="
M147.115295,80.367905 
	C147.102600,79.185959 147.376053,78.418076 148.648239,78.076294 
	C148.957886,78.012451 149.314453,78.324051 149.398041,78.531204 
	C149.566101,79.068764 149.778885,79.259346 150.392731,79.364571 
	C152.127243,79.753624 153.498230,80.357986 155.223602,80.968430 
	C157.181107,82.364792 159.311447,82.590271 161.343094,83.825195 
	C162.857162,85.063896 164.392166,85.373466 166.234924,85.848434 
	C168.656952,86.560165 170.776901,87.031204 173.288025,87.463089 
	C176.260391,87.516380 178.855072,87.497185 181.828766,87.492737 
	C184.167313,87.274094 186.051636,86.735039 188.258881,86.032066 
	C193.147476,84.550133 196.826065,81.633064 201.034241,78.946640 
	C207.548859,74.448204 212.093140,68.834297 214.603058,61.270123 
	C214.818100,59.978985 215.222229,59.119331 215.730042,57.915028 
	C216.783676,56.162777 217.458511,54.556221 219.348694,53.517044 
	C219.947723,53.412697 220.194717,53.422523 220.777344,53.590725 
	C221.226669,53.969032 221.340347,54.188961 221.278351,54.736065 
	C218.494934,64.544861 215.010910,73.493225 207.318634,80.251274 
	C199.958496,86.717545 191.966034,91.592529 181.418549,91.885590 
	C177.579132,91.136497 174.132446,91.622307 170.339996,91.707901 
	C161.358414,90.263992 153.706879,86.688904 147.115295,80.367905 
z"/>
<path fill="#D63020" opacity="1.000000" stroke="none" 
	d="
M58.792992,4.550183 
	C74.705032,6.897857 86.714432,14.871784 93.655174,29.463793 
	C95.234169,32.783428 95.804024,36.583069 96.804947,40.548485 
	C96.919067,47.192852 97.367027,53.472958 95.122589,59.940880 
	C94.973282,61.413059 95.147186,62.531384 93.984604,63.661381 
	C92.555885,64.693092 91.930252,66.530823 89.759598,65.928604 
	C88.499840,61.114792 91.232346,57.149929 91.523987,52.433510 
	C92.491310,50.221851 91.972862,48.218628 92.316071,45.960609 
	C91.250092,40.646202 91.001450,35.403076 87.540207,30.853550 
	C85.792366,28.323475 84.311386,26.018820 82.149414,23.796301 
	C79.299858,15.872786 72.747459,12.740182 65.751282,9.603321 
	C64.315453,8.439917 62.844204,8.525730 61.154724,8.079588 
	C59.638752,7.375218 58.703896,6.594239 58.792992,4.550183 
z"/>
<path fill="#EDCC2F" opacity="1.000000" stroke="none" 
	d="
M234.371292,162.688538 
	C216.947784,160.878098 206.821884,149.986343 199.133118,135.470123 
	C198.318222,134.374023 198.597260,133.380280 198.157532,132.242783 
	C197.918915,131.989838 197.984726,132.018860 197.968430,132.050919 
	C197.362595,129.345154 196.366745,126.678543 196.502747,123.388374 
	C196.357666,119.563873 196.543655,116.163116 196.311676,112.364067 
	C196.777863,108.464218 197.249969,104.924469 199.100647,101.364044 
	C199.313843,100.797653 199.440750,100.612289 199.786407,100.170593 
	C200.005127,99.914268 200.002823,100.010391 199.954742,100.009911 
	C200.417465,99.608528 200.490280,99.002663 200.800385,98.180786 
	C200.957047,97.927032 200.986038,97.990677 200.952423,97.981049 
	C201.973602,97.300179 201.950546,96.019226 202.783295,94.828529 
	C203.581238,94.094887 204.160660,93.673912 205.239777,94.225883 
	C206.650345,97.232735 205.636688,99.808899 204.414520,102.092705 
	C202.575455,105.529274 201.627563,109.184959 200.808228,113.297974 
	C201.082336,116.846214 200.901489,120.008858 200.916870,123.549110 
	C201.089386,128.539352 202.287292,132.829895 205.227631,136.880569 
	C206.048401,137.606506 206.466095,138.198318 206.997253,139.143082 
	C208.181076,143.657639 211.548584,146.212936 214.350357,149.546524 
	C215.424500,150.433289 216.181915,151.193436 217.444366,151.812607 
	C219.549149,152.728195 221.257294,153.717987 223.358154,154.661819 
	C225.003830,155.190964 226.399368,155.272751 228.099030,155.673080 
	C231.678940,157.513199 235.236542,158.680344 238.173096,161.453247 
	C237.256287,163.017410 235.882278,162.264053 234.371292,162.688538 
z"/>
<path fill="#C93D31" opacity="1.000000" stroke="none" 
	d="
M39.235241,89.513603 
	C26.268755,86.824715 17.552286,78.806755 11.102301,67.462280 
	C10.587687,66.644234 10.518363,66.021461 10.121141,65.226318 
	C9.901151,65.012695 9.973353,65.011574 9.954947,65.042633 
	C9.326850,64.298698 9.605120,63.332523 9.138290,62.236092 
	C8.899433,61.996838 8.969321,62.010506 8.953207,62.042259 
	C8.327568,61.300396 8.603785,60.336464 8.138195,59.244270 
	C7.896675,59.008514 7.968101,59.015114 7.956027,59.048889 
	C6.543865,53.656239 6.289571,48.130013 6.514281,42.131882 
	C7.302653,38.713261 8.331716,35.781776 8.747910,32.295280 
	C8.943605,31.921871 8.978264,31.986811 8.942169,31.979618 
	C9.190049,31.788744 9.438668,31.565151 9.812538,31.108776 
	C9.979951,30.428030 9.991745,29.945786 10.083841,29.110638 
	C11.132763,27.883589 11.463197,26.728861 11.749485,25.222755 
	C11.897909,24.956045 11.936810,25.001366 11.926270,24.977394 
	C12.269463,24.717562 12.569888,24.427570 12.919252,23.778336 
	C13.030297,23.482159 13.030587,23.508347 13.022484,23.518633 
	C13.113843,23.118664 13.302416,22.753099 13.754142,22.175230 
	C13.940742,21.924536 13.989603,21.990438 13.952276,21.973431 
	C14.215305,21.761225 14.479688,21.526222 14.856016,21.026443 
	C17.457121,18.273146 19.904392,15.738286 22.952133,13.327376 
	C23.966064,14.095922 24.114670,14.807430 24.029474,15.921700 
	C22.059671,20.858747 17.607813,23.640991 15.411112,28.440315 
	C12.904247,31.461271 12.785083,35.020195 11.584946,38.532730 
	C11.474650,39.092773 11.443069,39.319977 11.342604,39.885773 
	C11.117267,40.658073 10.944986,41.085392 10.674719,41.842777 
	C10.451198,44.049297 10.876374,45.899334 10.807046,48.115509 
	C10.829388,48.693909 10.834700,48.924240 10.845138,49.497448 
	C10.737737,52.112679 11.208379,54.271118 12.257521,56.652809 
	C12.563950,57.379921 12.720692,57.802235 12.972775,58.549442 
	C13.204810,59.297180 13.302130,59.730927 13.398741,60.495514 
	C13.479203,62.285717 13.402978,63.790237 14.868912,65.134460 
	C16.529909,67.517502 18.150084,69.538506 19.729204,71.980423 
	C20.472900,73.360359 20.949154,74.531235 22.134951,75.608620 
	C22.487038,75.987694 22.618820,76.146660 22.926897,76.557602 
	C23.483459,77.509399 23.845572,78.222931 24.775370,78.859047 
	C25.822048,79.604202 26.638346,80.156845 27.803297,80.711746 
	C28.603180,81.111359 29.090166,81.456810 29.875273,81.874649 
	C30.460091,82.225822 30.782625,82.440781 31.338802,82.819641 
	C32.052177,83.280457 32.503956,83.621208 33.267357,83.996674 
	C34.047386,84.364082 34.562805,84.626663 35.386971,84.943245 
	C36.423431,85.452148 37.262699,85.595337 38.368546,86.008636 
	C38.856598,86.304924 39.037834,86.450081 39.412666,86.889847 
	C39.853519,87.890625 39.818707,88.579025 39.235241,89.513603 
z"/>
<path fill="#DA2C1C" opacity="1.000000" stroke="none" 
	d="
M39.372871,89.864059 
	C38.977417,89.119804 38.960724,88.460472 38.930599,87.471512 
	C39.235165,86.673126 39.660488,86.343277 40.593437,86.074554 
	C48.529751,85.827797 56.173882,87.432411 63.922798,84.543968 
	C69.077469,81.844376 74.857513,80.828491 76.724655,74.183075 
	C77.674194,70.803513 81.326065,70.960884 84.716835,72.403053 
	C86.346214,75.744576 82.981262,77.066994 82.218422,79.780365 
	C81.981865,80.433998 81.829475,80.688843 81.330673,80.934456 
	C79.139732,82.100311 77.191330,83.234749 75.161995,84.864914 
	C69.977089,89.278458 64.251999,91.127037 57.389542,90.976547 
	C53.949287,92.074623 50.829063,91.190552 47.382149,91.674072 
	C44.571739,91.189064 42.161686,90.569023 39.372871,89.864059 
z"/>
<path fill="#EDCC2F" opacity="1.000000" stroke="none" 
	d="
M221.010742,78.244293 
	C221.304337,78.132751 221.477890,77.993088 221.584991,78.023621 
	C222.044617,77.830956 222.389389,77.596451 223.016418,77.234406 
	C223.307571,77.119896 223.453842,76.984383 223.544983,77.024750 
	C224.759583,76.250237 226.073700,76.597427 227.661438,76.323990 
	C229.748993,75.555672 231.483826,74.925926 233.567322,74.229248 
	C239.085266,74.964584 244.295776,74.209587 249.872864,74.806892 
	C250.269073,75.039574 250.572296,75.005280 250.706696,75.077515 
	C251.159988,75.286530 251.456467,75.460884 251.930191,75.839615 
	C255.782806,76.412369 259.297913,77.129074 261.667633,80.902802 
	C260.644958,82.241753 259.576752,82.331573 258.082458,82.232719 
	C251.459152,80.531136 245.260162,79.218330 238.677078,79.281471 
	C230.744293,79.357559 224.344788,82.470505 218.042038,87.276581 
	C216.582672,87.590767 215.384644,87.479393 214.154984,88.470245 
	C213.685959,88.793144 213.489517,88.911186 212.978302,89.171356 
	C211.552109,89.698982 210.437332,90.018074 209.021057,89.251907 
	C208.437790,87.359558 210.143906,86.759552 210.773499,85.210747 
	C210.950516,84.916130 210.983154,84.979141 210.947723,84.977112 
	C211.190262,84.783272 211.445114,84.564568 211.826645,84.115509 
	C211.976395,83.912056 211.983444,83.982376 211.951660,83.966949 
	C212.415787,83.584923 213.024765,83.515434 213.794662,83.104401 
	C214.004288,82.890854 214.006821,82.993950 213.955276,82.995270 
	C214.186600,82.791725 214.446747,82.560989 214.839691,82.095642 
	C214.992050,81.883286 214.992340,81.992859 214.937561,81.992256 
	C215.170654,81.800629 215.431732,81.577866 215.827545,81.123245 
	C215.985580,80.918968 215.974792,80.988937 215.940857,80.978851 
	C216.216019,80.736717 216.524811,80.504288 217.109680,80.183884 
	C217.386032,80.096313 217.479996,79.966492 217.548584,80.007919 
	C218.000977,79.848579 218.365295,79.616905 219.015182,79.241165 
	C219.317490,79.123634 219.476212,78.987236 219.575226,79.021118 
	C220.032379,78.837639 220.379547,78.603867 221.010742,78.244293 
z"/>
<path fill="#31AAD3" opacity="1.000000" stroke="none" 
	d="
M198.657135,9.485550 
	C207.022568,12.039694 212.064102,18.119682 216.112915,25.350935 
	C218.584000,29.764383 220.342651,34.428757 221.895264,39.553394 
	C221.263275,41.013893 221.603409,42.196838 221.354965,43.657887 
	C220.824951,44.238697 220.387238,44.260189 219.662048,43.867367 
	C219.101151,43.284245 218.864044,42.889095 218.579559,42.134666 
	C218.277649,41.399960 218.066162,40.998043 217.675018,40.303474 
	C216.366867,36.576733 216.007584,32.830936 213.232605,29.705450 
	C211.683655,25.940910 208.359436,23.820887 206.733063,20.140213 
	C206.483017,17.790567 205.231735,16.916441 203.048279,16.565948 
	C202.565292,16.300606 202.384750,16.169415 201.971313,15.795035 
	C200.856720,13.536150 197.850708,12.855953 198.657135,9.485550 
z"/>
<path fill="#EDCC2F" opacity="1.000000" stroke="none" 
	d="
M282.757446,102.951065 
	C282.869598,103.241005 283.011719,103.447472 282.981750,103.569153 
	C283.611511,104.577019 283.526917,105.574226 283.158844,106.879074 
	C282.713654,107.289246 282.492371,107.400673 281.900696,107.532776 
	C281.050201,107.426514 280.623383,107.201927 280.024323,106.590317 
	C279.652954,106.126366 279.517578,105.932549 279.204926,105.437469 
	C278.929291,104.928902 278.830963,104.721588 278.587524,104.206123 
	C277.392090,102.009911 277.507080,99.465736 275.000793,98.028740 
	C274.589050,97.633072 274.438995,97.458740 274.101166,96.994247 
	C273.769409,96.407120 273.560913,96.124863 273.489960,95.811569 
	C272.584290,91.812729 266.618073,95.732491 266.652496,92.034302 
	C266.684784,88.560188 265.195953,87.070328 262.525604,85.365723 
	C262.049683,84.992577 261.877014,84.817711 261.513306,84.322365 
	C261.061249,83.263977 261.065887,82.530098 261.582031,81.497993 
	C261.808472,81.195442 261.943451,81.057747 262.010925,80.988869 
	C265.644257,80.485252 267.382599,83.255997 269.552032,85.224716 
	C274.046356,89.303238 278.813141,93.170288 281.004395,99.517365 
	C281.222168,100.157021 281.442230,100.422386 281.878784,100.837128 
	C282.081390,100.998016 282.014191,100.979294 282.029907,100.948158 
	C282.436279,101.432808 282.490723,102.064194 282.757446,102.951065 
z"/>
<path fill="#EDCC2F" opacity="1.000000" stroke="none" 
	d="
M285.016479,128.708160 
	C284.408813,130.104095 283.744415,131.044220 283.884277,132.618622 
	C282.764496,134.170578 282.172852,136.130173 279.593262,134.992538 
	C277.363525,131.130936 279.390381,127.987282 280.494110,124.838524 
	C282.283752,119.732979 279.911469,114.508766 281.509766,109.105659 
	C284.717010,107.911346 284.666962,110.206787 285.026123,111.895668 
	C286.185272,117.346733 285.183624,122.810432 285.016479,128.708160 
z"/>
<path fill="#EDCC2F" opacity="1.000000" stroke="none" 
	d="
M279.245544,140.845062 
	C278.442261,145.479126 274.688965,147.435776 272.001221,150.603882 
	C271.390320,151.517853 270.726105,151.680298 269.680115,151.686050 
	C269.142639,151.481445 268.947998,151.351471 268.577637,150.917053 
	C268.126831,149.643219 268.417725,148.779724 269.090942,147.675415 
	C270.085785,146.666733 270.734131,145.816544 271.328491,144.541504 
	C271.541351,143.585190 271.733521,142.958694 272.172363,142.061554 
	C273.901886,140.448990 275.059967,138.776657 276.560333,136.929489 
	C276.987427,136.510925 277.173340,136.355255 277.680359,136.018188 
	C278.726959,135.551544 279.452301,135.508453 280.418060,136.134598 
	C281.425262,138.132050 280.602112,139.381821 279.245544,140.845062 
z"/>
<path fill="#EDCC2F" opacity="1.000000" stroke="none" 
	d="
M262.313232,156.816742 
	C261.226105,158.190231 259.925323,158.550064 258.336700,159.066940 
	C257.727966,159.299271 257.487213,159.500137 257.130920,159.920105 
	C256.990448,160.109268 257.015869,160.014465 257.062866,160.028564 
	C255.902176,160.859909 254.497208,160.292908 252.819550,160.642029 
	C250.430145,160.182281 250.646210,159.084641 251.915573,157.504044 
	C256.673492,154.547729 261.346741,152.233932 266.478394,150.038696 
	C267.374512,150.038635 267.856995,150.184891 268.608459,150.675232 
	C268.911377,150.907364 269.006256,151.019241 269.053131,151.075684 
	C269.504059,152.117279 268.706726,152.746201 268.220398,153.796432 
	C268.048309,154.074509 268.009460,154.016678 268.044128,154.020142 
	C267.805237,154.218689 267.552856,154.438080 267.171051,154.883179 
	C267.020325,155.084396 267.013611,155.015656 267.045288,155.029419 
	C266.585571,155.413971 265.979736,155.484848 265.207275,155.884888 
	C264.994934,156.094131 265.023834,156.017532 265.061462,156.033691 
	C264.338226,156.649704 263.402893,156.419800 262.313232,156.816742 
z"/>
<path fill="#C93D31" opacity="1.000000" stroke="none" 
	d="
M82.314102,79.955566 
	C81.810738,77.510605 83.177887,75.584160 84.904633,73.443123 
	C85.156075,72.257523 85.312042,71.384766 85.926262,70.301819 
	C86.219994,69.837959 86.349754,69.661736 86.702332,69.248718 
	C87.586090,68.485741 88.266563,67.978271 88.849808,66.940857 
	C89.197739,66.544067 89.358948,66.405075 89.823380,66.166046 
	C91.159058,65.398598 92.191521,64.731186 93.529022,64.010330 
	C92.013985,70.597137 87.335846,75.215530 82.314102,79.955566 
z"/>
<path fill="#F6E582" opacity="1.000000" stroke="none" 
	d="
M285.399994,128.906616 
	C283.564423,127.555878 284.250366,125.767876 284.489746,123.984032 
	C285.172211,118.898422 285.570526,113.823807 282.745239,108.851273 
	C281.818512,108.400299 281.561554,107.938972 282.072754,107.178825 
	C282.633850,106.177773 282.769867,105.283752 282.928833,104.040283 
	C287.678497,111.587791 285.753876,120.237129 285.399994,128.906616 
z"/>
<path fill="#F9AB9C" opacity="1.000000" stroke="none" 
	d="
M95.246490,60.121712 
	C95.917259,54.096237 96.129822,47.823307 96.472786,41.236927 
	C98.892166,47.418488 98.060883,53.723877 95.246490,60.121712 
z"/>
<path fill="#D63020" opacity="1.000000" stroke="none" 
	d="
M44.648529,2.963089 
	C45.146484,2.940485 45.312725,2.985543 45.729687,3.092977 
	C46.144508,3.350410 46.308609,3.545467 46.590599,4.106400 
	C46.828949,6.746336 44.763924,7.333719 43.195255,8.766356 
	C41.545620,9.463648 40.234966,9.498399 38.563953,8.847651 
	C38.032249,8.464960 37.850986,8.273201 37.554619,7.705745 
	C37.406052,5.241273 39.397518,5.231791 40.852180,4.142668 
	C42.228470,3.647109 43.272640,3.338931 44.648529,2.963089 
z"/>
<path fill="#FEDFD4" opacity="1.000000" stroke="none" 
	d="
M7.293694,40.857269 
	C7.207261,46.978554 6.961272,52.715961 8.199962,58.700897 
	C4.690269,52.715839 6.295193,45.916027 6.569442,39.055000 
	C7.354694,39.306572 7.516590,39.842911 7.293694,40.857269 
z"/>
<path fill="#7BCBE7" opacity="1.000000" stroke="none" 
	d="
M220.588257,44.307468 
	C221.049072,42.810669 221.196365,41.634064 221.587677,40.193310 
	C222.552124,44.858814 223.683182,49.788609 221.464722,54.890324 
	C221.047668,54.890144 220.992676,54.717041 220.855331,54.284229 
	C219.732056,52.824047 219.511551,51.378906 219.527252,49.416088 
	C219.571899,47.487766 219.423233,45.971134 220.588257,44.307468 
z"/>
<path fill="#F6E582" opacity="1.000000" stroke="none" 
	d="
M279.376221,141.083694 
	C279.393890,139.699570 279.786987,138.258743 280.181580,136.441025 
	C280.019470,135.904480 279.855896,135.744843 280.006531,135.448059 
	C281.284393,134.581589 282.248016,133.852249 283.506653,133.038544 
	C283.001923,135.921173 283.424927,139.501602 279.376221,141.083694 
z"/>
<path fill="#31AAD3" opacity="1.000000" stroke="none" 
	d="
M195.533264,9.348289 
	C194.205429,6.593015 191.238968,7.676344 190.059021,5.469879 
	C193.317123,4.986368 195.915009,6.955946 198.895523,8.615105 
	C199.049881,8.945215 198.858932,9.142434 198.763336,9.240931 
	C197.889740,10.050481 196.989410,10.088305 195.533264,9.348289 
z"/>
<path fill="#A3E8F5" opacity="1.000000" stroke="none" 
	d="
M162.483292,5.151645 
	C159.894226,6.517554 156.906860,7.817270 153.557098,9.147423 
	C155.216049,5.767173 158.323547,4.716008 162.483292,5.151645 
z"/>
<path fill="#F4DB6F" opacity="1.000000" stroke="none" 
	d="
M234.481598,162.911926 
	C234.948059,161.866364 236.181976,162.110260 237.675598,161.948013 
	C239.440323,160.074631 241.543030,160.143890 243.911514,159.906204 
	C245.326477,159.973785 246.219254,160.441666 247.579803,161.478149 
	C243.808212,164.179108 239.286758,162.376312 234.481598,162.911926 
z"/>
<path fill="#F4DB6F" opacity="1.000000" stroke="none" 
	d="
M250.029694,74.650528 
	C245.040848,74.922043 239.812622,74.804512 234.250183,74.424652 
	C239.207413,74.195381 244.498856,74.228432 250.029694,74.650528 
z"/>
<path fill="#C93D31" opacity="1.000000" stroke="none" 
	d="
M41.000446,3.673292 
	C40.952351,5.546393 39.538319,5.872084 38.204250,6.768613 
	C37.617218,7.342945 37.235657,7.648304 36.487041,8.056139 
	C35.385933,8.306154 34.656689,8.225687 33.434357,7.421197 
	C35.199909,4.946650 38.172840,4.538798 41.000446,3.673292 
z"/>
<path fill="#90D98F" opacity="1.000000" stroke="none" 
	d="
M118.916031,74.622131 
	C114.372704,75.069092 109.611282,75.130615 104.385368,75.090256 
	C108.756546,72.968147 113.764259,74.329979 118.916031,74.622131 
z"/>
<path fill="#C93D31" opacity="1.000000" stroke="none" 
	d="
M75.043121,85.297691 
	C75.857079,82.544281 77.833832,81.396729 80.736801,81.000267 
	C79.844543,83.424042 77.439445,84.373344 75.043121,85.297691 
z"/>
<path fill="#90D98F" opacity="1.000000" stroke="none" 
	d="
M68.107063,112.430496 
	C69.696846,116.054672 68.723106,120.259056 68.427155,124.732994 
	C68.123192,120.996147 68.094193,116.947441 68.107063,112.430496 
z"/>
<path fill="#C93D31" opacity="1.000000" stroke="none" 
	d="
M46.411377,4.427037 
	C46.033695,4.121273 46.011047,3.638058 45.995728,3.396706 
	C49.974030,3.131826 53.967655,3.108298 58.414268,3.115784 
	C58.867252,3.146798 59.033649,3.503360 59.067818,3.697274 
	C59.101986,3.891189 58.971867,4.097933 58.906967,4.201408 
	C54.923168,7.229488 50.847187,5.729639 46.411377,4.427037 
z"/>
<path fill="#C93D31" opacity="1.000000" stroke="none" 
	d="
M23.024715,13.023626 
	C24.111572,10.802915 26.424049,10.211027 28.894867,9.218925 
	C29.854694,10.030913 29.930735,10.685938 29.677052,11.686955 
	C29.416403,12.178648 29.278818,12.356030 28.878361,12.742096 
	C28.231998,13.176980 27.830009,13.362388 27.105709,13.633667 
	C26.595098,13.829613 26.384777,13.891119 25.849323,13.999657 
	C24.856911,14.063953 24.229813,13.925243 23.408772,13.362381 
	C23.158089,13.158473 23.069132,13.068617 23.024715,13.023626 
z"/>
<path fill="#F4DB6F" opacity="1.000000" stroke="none" 
	d="
M196.084747,112.380829 
	C197.928482,115.226349 196.518723,118.745880 196.971069,122.564056 
	C196.819275,123.205803 196.685379,123.396202 196.355804,123.297455 
	C195.451721,119.614532 195.986801,116.201859 196.084747,112.380829 
z"/>
<path fill="#FDCCBC" opacity="1.000000" stroke="none" 
	d="
M7.399290,40.967167 
	C7.098609,40.726635 7.056327,40.188038 6.987342,39.244888 
	C6.420240,36.446785 8.068406,34.473057 8.587624,32.068176 
	C9.791256,35.025242 7.873761,37.722111 7.399290,40.967167 
z"/>
<path fill="#F6E582" opacity="1.000000" stroke="none" 
	d="
M196.086929,123.425720 
	C196.160095,123.008308 196.557053,123.010017 196.755127,123.012711 
	C197.328476,125.759323 197.703766,128.503250 198.015594,131.665070 
	C195.871078,129.673920 195.909012,126.766380 196.086929,123.425720 
z"/>
<path fill="#31AAD3" opacity="1.000000" stroke="none" 
	d="
M170.431137,91.963654 
	C173.360825,90.246643 176.859665,91.000610 180.666077,91.599777 
	C177.623016,91.905876 174.253494,91.979729 170.431137,91.963654 
z"/>
<path fill="#F4DB6F" opacity="1.000000" stroke="none" 
	d="
M251.792542,160.221985 
	C253.507187,160.041779 254.892670,160.015381 256.694031,160.015823 
	C254.544601,161.453918 251.789902,162.052780 248.461029,162.004990 
	C248.047455,162.047058 248.004288,162.001419 247.982910,161.978424 
	C247.864594,161.731888 247.767670,161.508347 247.842438,160.961334 
	C249.098724,159.692825 250.278519,160.000687 251.792542,160.221985 
z"/>
<path fill="#F9AB9C" opacity="1.000000" stroke="none" 
	d="
M47.426971,91.886124 
	C49.888397,90.141823 53.054371,91.417648 56.511856,90.999512 
	C54.106625,93.008430 50.882442,91.486900 47.426971,91.886124 
z"/>
<path fill="#F4DB6F" opacity="1.000000" stroke="none" 
	d="
M268.368164,153.974609 
	C268.292786,153.278107 268.537231,152.481689 268.940857,151.408707 
	C269.783081,151.064621 270.466187,150.997101 271.493530,150.914276 
	C271.891205,153.058701 269.527893,152.660446 268.368164,153.974609 
z"/>
<path fill="#F6E582" opacity="1.000000" stroke="none" 
	d="
M203.268158,94.755310 
	C202.844955,96.174911 202.880722,97.394882 201.255157,97.949089 
	C200.917297,96.528259 200.871857,95.069313 202.623749,93.989914 
	C203.124557,94.035126 203.297623,94.228806 203.268158,94.755310 
z"/>
<path fill="#F4DB6F" opacity="1.000000" stroke="none" 
	d="
M210.641937,85.014954 
	C211.146744,86.453476 209.952545,87.297668 209.072601,88.671280 
	C208.773651,89.108673 208.628235,89.249863 207.691650,89.148682 
	C208.044769,87.642128 209.189072,86.377953 210.641937,85.014954 
z"/>
<path fill="#F4DB6F" opacity="1.000000" stroke="none" 
	d="
M203.298721,94.944038 
	C203.044724,94.880554 203.023788,94.672981 202.977173,94.153435 
	C202.693619,92.589287 203.543457,91.881454 204.865479,91.237747 
	C205.654999,91.799484 205.739777,92.269836 205.320190,93.349060 
	C204.461258,94.224434 203.996521,94.512192 203.298721,94.944038 
z"/>
<path fill="#F9AB9C" opacity="1.000000" stroke="none" 
	d="
M11.580423,25.055424 
	C13.208184,26.641834 11.933526,27.610273 10.520002,28.698330 
	C9.700998,27.303808 11.164291,26.437395 11.580423,25.055424 
z"/>
<path fill="#C93D31" opacity="1.000000" stroke="none" 
	d="
M29.030235,9.029030 
	C29.824720,7.908214 30.990259,7.359513 32.583664,6.934443 
	C32.917759,6.906647 33.000908,7.012003 33.041973,7.065081 
	C33.267971,7.548124 33.279400,7.986269 32.974213,8.727464 
	C32.637451,9.180490 32.471420,9.337342 31.997021,9.644426 
	C30.999868,9.969475 30.335888,9.908264 29.432167,9.375295 
	C29.164959,9.164957 29.075089,9.074394 29.030235,9.029030 
z"/>
<path fill="#F6E582" opacity="1.000000" stroke="none" 
	d="
M227.617554,76.114502 
	C226.968781,77.084740 225.694382,77.135841 224.024139,77.111511 
	C224.462921,75.432709 225.952835,76.127396 227.617554,76.114502 
z"/>
<path fill="#F4DB6F" opacity="1.000000" stroke="none" 
	d="
M204.958344,90.953781 
	C205.373703,90.291855 205.861420,89.698982 206.624817,89.006210 
	C206.900482,88.906311 206.981766,88.990967 207.020782,89.034790 
	C207.774216,90.374062 207.300293,91.105919 205.562805,91.290359 
	C205.176987,91.159233 205.030670,91.022842 204.958344,90.953781 
z"/>
<path fill="#31AAD3" opacity="1.000000" stroke="none" 
	d="
M188.993805,4.618718 
	C188.274551,4.823486 187.403595,4.697008 186.274994,4.358965 
	C186.958939,4.194091 187.900528,4.240781 188.993805,4.618718 
z"/>
<path fill="#A3E8F5" opacity="1.000000" stroke="none" 
	d="
M138.663467,23.007393 
	C139.205780,23.938599 138.872635,24.635233 137.515106,25.011681 
	C136.944977,24.038857 137.974930,23.755142 138.663467,23.007393 
z"/>
<path fill="#F6E582" opacity="1.000000" stroke="none" 
	d="
M197.949539,132.355743 
	C198.922928,132.511749 199.044800,133.442917 199.024872,134.788757 
	C197.691711,134.746628 198.038528,133.649078 197.949539,132.355743 
z"/>
<path fill="#FDCCBC" opacity="1.000000" stroke="none" 
	d="
M8.943711,62.351883 
	C10.415711,62.172070 10.124970,63.474834 10.173408,64.745926 
	C8.638376,64.678329 9.097980,63.578487 8.943711,62.351883 
z"/>
<path fill="#FDCCBC" opacity="1.000000" stroke="none" 
	d="
M7.934949,59.364738 
	C9.532534,59.093861 9.071598,60.504738 9.175335,61.741020 
	C7.624799,61.695602 8.067197,60.598427 7.934949,59.364738 
z"/>
<path fill="#F4DB6F" opacity="1.000000" stroke="none" 
	d="
M262.425598,157.026794 
	C262.612152,156.155853 263.495453,156.030121 264.757812,156.018936 
	C264.719971,157.329514 263.645477,156.919128 262.425598,157.026794 
z"/>
<path fill="#A3E8F5" opacity="1.000000" stroke="none" 
	d="
M143.555115,16.957447 
	C143.446915,17.569916 142.987854,18.231363 142.221130,18.939812 
	C142.084885,18.157965 141.651489,16.934929 143.555115,16.957447 
z"/>
<path fill="#F6E582" opacity="1.000000" stroke="none" 
	d="
M282.931702,102.886215 
	C282.562531,102.681808 282.255463,102.122604 281.997040,101.240219 
	C282.944183,101.113060 283.035736,101.783035 282.931702,102.886215 
z"/>
<path fill="#F4DB6F" opacity="1.000000" stroke="none" 
	d="
M213.684250,82.937813 
	C213.522232,83.256325 213.040176,83.621803 212.238983,83.969406 
	C212.113953,83.199966 212.674683,82.996147 213.684250,82.937813 
z"/>
<path fill="#FDCCBC" opacity="1.000000" stroke="none" 
	d="
M9.943033,65.340851 
	C10.995294,64.880356 11.012116,65.659370 11.032635,66.769623 
	C10.251073,66.925896 9.974572,66.395546 9.943033,65.340851 
z"/>
<path fill="#F6E582" opacity="1.000000" stroke="none" 
	d="
M200.646149,98.029831 
	C200.802521,98.525658 200.647980,99.124275 200.200073,99.866165 
	C200.049530,99.383835 200.192383,98.758240 200.646149,98.029831 
z"/>
<path fill="#A3E8F5" opacity="1.000000" stroke="none" 
	d="
M139.634735,21.024565 
	C140.312271,21.647980 140.110153,22.263380 139.248230,22.905613 
	C139.048264,22.370432 139.186340,21.747438 139.634735,21.024565 
z"/>
<path fill="#F4DB6F" opacity="1.000000" stroke="none" 
	d="
M265.317078,156.053772 
	C265.477997,155.736176 265.961090,155.378235 266.760559,155.031738 
	C266.894562,155.806519 266.333862,156.009232 265.317078,156.053772 
z"/>
<path fill="#FDCCBC" opacity="1.000000" stroke="none" 
	d="
M9.710327,30.991711 
	C9.827023,31.300390 9.685889,31.690510 9.225416,32.026527 
	C9.088216,31.672668 9.270357,31.372910 9.710327,30.991711 
z"/>
<path fill="#F4DB6F" opacity="1.000000" stroke="none" 
	d="
M267.290344,155.020309 
	C267.196869,154.778641 267.373413,154.472885 267.814392,154.095367 
	C267.905945,154.334473 267.733154,154.645340 267.290344,155.020309 
z"/>
<path fill="#F9AB9C" opacity="1.000000" stroke="none" 
	d="
M12.791973,23.695845 
	C12.937119,23.997208 12.843941,24.512259 12.333246,24.990364 
	C12.128369,24.605459 12.341009,24.257494 12.791973,23.695845 
z"/>
<path fill="#F4DB6F" opacity="1.000000" stroke="none" 
	d="
M257.234802,160.032837 
	C257.144623,159.826523 257.343964,159.580353 257.791077,159.249557 
	C257.822205,159.404373 257.650665,159.680389 257.234802,160.032837 
z"/>
<path fill="#F9AB9C" opacity="1.000000" stroke="none" 
	d="
M14.738035,20.904081 
	C14.869696,21.226524 14.729546,21.645041 14.252172,22.009991 
	C14.098707,21.637667 14.282466,21.318913 14.738035,20.904081 
z"/>
<path fill="#A3E8F5" opacity="1.000000" stroke="none" 
	d="
M141.710281,18.984131 
	C141.826843,19.264654 141.675735,19.612446 141.219910,19.967974 
	C141.091003,19.667608 141.266815,19.359505 141.710281,18.984131 
z"/>
<path fill="#F4DB6F" opacity="1.000000" stroke="none" 
	d="
M211.702286,83.971298 
	C211.799072,84.218185 211.621750,84.524307 211.178360,84.902756 
	C211.084259,84.660240 211.256226,84.345390 211.702286,83.971298 
z"/>
<path fill="#F4DB6F" opacity="1.000000" stroke="none" 
	d="
M214.718933,81.962753 
	C214.791809,82.176582 214.591553,82.469879 214.147522,82.879883 
	C214.084412,82.678459 214.265106,82.360336 214.718933,81.962753 
z"/>
<path fill="#A3E8F5" opacity="1.000000" stroke="none" 
	d="
M140.705353,19.979645 
	C140.828323,20.272675 140.683014,20.629496 140.225342,20.977028 
	C140.087677,20.659639 140.262360,20.351538 140.705353,19.979645 
z"/>
<path fill="#F6E582" opacity="1.000000" stroke="none" 
	d="
M199.751862,99.994186 
	C199.899658,100.203934 199.746902,100.466034 199.366913,100.841797 
	C199.290833,100.680046 199.394714,100.377083 199.751862,99.994186 
z"/>
<path fill="#F6E582" opacity="1.000000" stroke="none" 
	d="
M282.006531,100.729904 
	C281.801147,100.788315 281.520935,100.578606 281.128296,100.124565 
	C281.321136,100.074074 281.626404,100.267929 282.006531,100.729904 
z"/>
<path fill="#F4DB6F" opacity="1.000000" stroke="none" 
	d="
M215.711517,80.984657 
	C215.781662,81.204033 215.577728,81.489098 215.128296,81.882904 
	C215.067673,81.677879 215.252563,81.364113 215.711517,80.984657 
z"/>
<path fill="#90D98F" opacity="1.000000" stroke="none" 
	d="
M103.795517,75.005768 
	C103.796021,75.087936 103.552605,75.244675 103.180481,75.291824 
	C103.218376,75.148285 103.384987,75.114319 103.795517,75.005768 
z"/>
<path fill="#F6E582" opacity="1.000000" stroke="none" 
	d="
M217.048798,80.050262 
	C217.094437,80.368851 216.802841,80.641380 216.209076,80.941345 
	C216.175140,80.647247 216.443359,80.325722 217.048798,80.050262 
z"/>
<path fill="#F6E582" opacity="1.000000" stroke="none" 
	d="
M218.960632,79.079910 
	C218.968857,79.386246 218.620224,79.648842 217.944382,79.980392 
	C217.946045,79.711624 218.274918,79.373901 218.960632,79.079910 
z"/>
<path fill="#F6E582" opacity="1.000000" stroke="none" 
	d="
M220.955963,78.089600 
	C220.969452,78.388107 220.634552,78.643448 219.986938,78.976898 
	C219.985352,78.718811 220.296463,78.382622 220.955963,78.089600 
z"/>
<path fill="#F9AB9C" opacity="1.000000" stroke="none" 
	d="
M13.606277,22.043755 
	C13.888178,22.390497 13.835612,22.856461 13.398714,23.425671 
	C13.100190,23.073603 13.186001,22.618288 13.606277,22.043755 
z"/>
<path fill="#F6E582" opacity="1.000000" stroke="none" 
	d="
M222.958649,77.077888 
	C222.975800,77.376038 222.644043,77.632187 222.002197,77.971245 
	C221.997971,77.714729 222.303833,77.375305 222.958649,77.077888 
z"/>
<path fill="#F4DB6F" opacity="1.000000" stroke="none" 
	d="
M252.026443,75.718094 
	C251.820312,75.847931 251.507324,75.695168 251.017731,75.346085 
	C251.200592,75.245003 251.560104,75.340248 252.026443,75.718094 
z"/>
<path fill="#0CB60D" opacity="1.000000" stroke="none" 
	d="
M75.631989,100.474991 
	C76.004402,97.611015 77.165771,96.457169 79.759872,97.366676 
	C80.767105,97.719810 81.785118,97.814117 82.324188,96.664261 
	C82.835594,95.573410 81.839363,95.309120 81.172356,94.852829 
	C79.268852,93.550682 80.358124,92.325607 81.327858,91.129669 
	C83.267914,88.737053 86.050644,87.554939 88.644005,86.115913 
	C89.353294,85.722328 90.441765,85.787491 90.927971,85.252747 
	C94.183441,81.672325 98.205254,80.538391 102.888145,79.315643 
	C107.802902,78.032356 112.398254,76.930405 117.223785,78.053192 
	C121.776268,79.112442 127.054039,77.918434 130.716293,82.058479 
	C131.669083,83.135574 132.945511,82.176674 134.017883,82.395149 
	C137.177689,83.038902 137.890076,85.576752 135.310699,88.643265 
	C140.656509,87.030151 143.342255,89.597214 145.485092,93.673393 
	C146.526611,95.654617 148.774323,96.986549 149.891449,98.945724 
	C156.921097,111.273949 157.034927,124.227646 150.408508,136.325333 
	C147.968231,140.780487 145.258530,145.666977 141.412048,149.615005 
	C136.975540,154.168655 132.002823,156.950668 125.736374,156.959641 
	C121.630295,156.965515 119.818390,161.509338 115.484383,161.311722 
	C113.074341,161.201843 110.784332,162.078400 108.437233,160.470840 
	C103.942413,157.392227 97.300293,158.722397 93.763176,153.408859 
	C93.412209,152.881607 91.872002,153.158981 90.886871,153.037567 
	C89.741638,152.896408 88.042290,153.149979 87.549446,152.499878 
	C84.884094,148.984100 80.144806,146.812332 78.436729,143.446671 
	C74.500992,135.691544 70.579201,127.258659 71.269447,118.318901 
	C71.720436,112.477943 71.887352,106.112694 75.631989,100.474991 
z"/>
<path fill="#02AFFD" opacity="1.000000" stroke="none" 
	d="
M202.751068,14.792202 
	C203.027054,14.989339 203.150513,15.412596 203.197845,15.627901 
	C205.013641,16.207527 206.405579,17.169359 207.763031,18.780241 
	C208.544357,23.035894 213.693924,24.007328 214.073090,28.512733 
	C216.732681,32.144600 215.806992,36.735924 218.532227,40.250893 
	C219.053299,40.487118 219.268875,40.565746 219.685242,40.923943 
	C219.881302,41.575737 219.876556,41.947964 219.884735,42.599133 
	C219.770111,43.070023 219.642578,43.261971 219.281158,43.706749 
	C215.826187,45.635464 216.208435,48.484070 216.906235,51.224522 
	C217.437958,53.312748 218.125427,55.310326 217.211594,57.740925 
	C216.777130,58.822506 216.541199,59.630203 216.168610,60.725960 
	C214.068054,63.676716 211.790543,65.789230 208.719940,67.369553 
	C205.012497,69.277634 201.873199,72.108406 203.087921,77.165863 
	C203.279129,77.961929 202.977539,78.798317 202.266846,79.783791 
	C198.182617,82.787117 194.722778,86.220108 189.394470,87.044724 
	C184.616135,84.838303 179.847549,84.884712 175.089859,84.357071 
	C168.639252,83.641685 162.192230,82.758636 155.358582,82.052292 
	C152.988770,82.164673 151.326035,81.269608 149.386047,80.119537 
	C148.929855,79.808426 148.781387,79.663528 148.807526,79.261047 
	C148.982132,79.003464 148.984039,78.507507 148.970963,78.259979 
	C147.602310,76.610252 144.724976,76.638779 144.936386,73.386780 
	C146.049393,70.718842 146.328995,69.275276 143.119568,67.944633 
	C139.297409,66.359940 138.722900,61.668697 136.256424,58.245407 
	C132.427399,48.878036 134.660690,40.278118 138.404877,31.844547 
	C139.975998,28.305681 139.941055,23.139193 146.145187,24.007380 
	C146.976654,24.123734 146.875031,22.732338 146.967010,21.939682 
	C147.455490,17.730492 150.551254,15.570992 153.568558,13.205481 
	C158.635864,9.232803 164.963745,8.392710 170.627457,5.923935 
	C175.764023,3.684940 180.938599,5.328220 185.747574,6.526324 
	C188.519394,7.216893 191.518906,7.666486 194.635742,8.843733 
	C195.033401,8.878448 195.026642,8.943975 195.017227,8.975536 
	C195.911331,11.090623 196.356415,13.580435 199.724869,12.856254 
	C200.746185,12.636683 201.398407,14.224144 202.751068,14.792202 
z"/>
<path fill="#0AAEF5" opacity="1.000000" stroke="none" 
	d="
M136.030640,58.374809 
	C138.484207,58.697670 139.815979,60.814255 140.606277,62.795601 
	C141.711288,65.565987 142.945190,67.347595 146.201935,67.114304 
	C147.395996,67.028778 148.535858,67.721436 148.694595,69.053841 
	C148.957581,71.261520 147.466644,72.255066 145.284698,72.965744 
	C140.190689,69.370049 137.541733,64.419022 136.030640,58.374809 
z"/>
<path fill="#0AAEF5" opacity="1.000000" stroke="none" 
	d="
M155.166473,82.382263 
	C155.164795,81.286865 155.363541,80.214684 156.340942,80.308136 
	C166.001831,81.231880 175.526749,83.482887 185.323532,83.139870 
	C187.281815,83.071304 187.923477,84.918701 188.857101,86.710342 
	C187.601440,88.613869 185.771729,89.063400 183.385071,89.022644 
	C179.898636,87.498962 176.759338,86.508362 173.228943,88.779266 
	C170.670914,89.214516 168.552444,88.525482 166.241196,87.291801 
	C165.002136,85.280403 163.456985,84.793182 161.241638,85.094215 
	C159.291000,83.769798 156.759201,84.499130 155.166473,82.382263 
z"/>
<path fill="#0AAEF5" opacity="1.000000" stroke="none" 
	d="
M202.383362,79.998169 
	C202.033295,79.897293 202.037720,79.729523 202.007629,79.568192 
	C200.200760,69.879929 200.826492,68.554237 210.410797,64.791908 
	C212.559982,63.948235 212.723206,61.007896 215.661728,61.025330 
	C214.615402,69.445450 209.039719,74.950966 202.383362,79.998169 
z"/>
<path fill="#0AAEF5" opacity="1.000000" stroke="none" 
	d="
M217.256866,57.814934 
	C217.388382,54.778374 214.578400,52.450001 214.576218,49.274586 
	C214.574249,46.398647 214.407211,43.601273 218.590866,43.005249 
	C220.354843,44.583641 219.779480,46.625027 220.320129,48.829590 
	C220.528046,50.584259 220.524399,51.946552 220.179413,53.629196 
	C219.116043,55.171341 218.308365,56.393200 217.256866,57.814934 
z"/>
<path fill="#02AFFD" opacity="1.000000" stroke="none" 
	d="
M173.445694,89.026489 
	C174.563019,85.031807 177.718552,84.801193 182.914825,88.661423 
	C179.974396,89.023315 176.937653,89.027267 173.445694,89.026489 
z"/>
<path fill="#02AFFD" opacity="1.000000" stroke="none" 
	d="
M161.041840,85.447403 
	C161.315475,83.181137 162.594208,82.746826 164.265854,83.290565 
	C165.722427,83.764351 167.230423,84.353340 166.109283,86.736481 
	C164.336273,86.779129 162.395294,87.652206 161.041840,85.447403 
z"/>
<path fill="#31AAD3" opacity="1.000000" stroke="none" 
	d="
M220.135925,53.969604 
	C219.943512,52.581276 219.963303,51.213062 219.996262,49.433289 
	C220.171082,48.888901 220.332733,48.756073 220.748169,48.807846 
	C220.956726,50.390972 220.911499,51.789501 220.819641,53.606274 
	C220.772995,54.024521 220.348114,53.989723 220.135925,53.969604 
z"/>
<path fill="#29A9DE" opacity="1.000000" stroke="none" 
	d="
M148.850525,79.107315 
	C148.982132,79.003464 149.030014,79.478722 149.054169,79.716019 
	C148.958511,79.705940 148.838699,79.458557 148.850525,79.107315 
z"/>
<path fill="#FE1E01" opacity="1.000000" stroke="none" 
	d="
M37.740593,8.278151 
	C39.368217,7.992192 40.737926,7.945121 42.518578,7.887153 
	C44.648819,7.364783 46.286266,6.503644 48.048428,6.243585 
	C51.507034,5.733164 53.607513,7.104577 53.775963,10.734200 
	C55.336155,8.668662 57.189770,6.682720 60.698402,6.926523 
	C62.526649,7.093665 64.011017,7.289436 65.772736,7.733674 
	C66.011444,9.336812 64.694061,10.056226 63.972099,11.615288 
	C68.739204,10.451647 71.811302,11.818178 73.272141,16.213078 
	C75.605270,23.232273 75.630836,23.223774 82.802971,22.746897 
	C85.473610,24.434792 87.167381,26.469086 88.032150,29.528345 
	C90.424469,33.530396 89.676697,37.829617 90.527130,42.227028 
	C90.388885,44.901829 91.275894,47.099026 90.745956,49.743759 
	C90.778442,54.997524 90.445267,59.793636 87.688293,64.019638 
	C86.536072,65.785805 87.664162,67.608948 87.176590,69.722969 
	C87.016426,71.209969 86.918312,72.337395 85.394623,73.025879 
	C81.181633,72.859482 77.133537,72.029503 77.233307,78.289497 
	C77.260597,80.001770 75.905296,82.119972 73.370743,82.032837 
	C70.064758,81.919182 69.045792,86.146698 65.368645,85.990646 
	C57.081394,82.331436 49.364021,84.270889 41.331787,86.933594 
	C40.533081,87.049675 40.070908,87.055161 39.262947,87.101273 
	C38.917168,87.141891 38.448704,87.071640 38.212967,87.048653 
	C37.490486,86.553856 36.853992,86.286385 36.150536,85.569710 
	C34.807682,82.708069 32.067501,82.703926 29.741293,81.392654 
	C28.342880,79.474686 28.882713,77.731758 29.440889,75.689484 
	C28.118704,77.640991 26.587164,78.587914 24.127375,78.261292 
	C23.331667,78.014275 22.918751,77.779480 22.262787,77.255966 
	C21.989904,77.020699 22.000164,77.002510 21.990082,77.003525 
	C21.694756,76.604477 21.472460,76.172722 21.252430,75.348328 
	C23.973083,69.853241 21.329290,65.630119 18.527395,61.750080 
	C16.062214,58.336323 15.174763,55.589092 18.382915,52.056953 
	C21.053343,49.116837 20.392582,47.994934 16.267849,47.051220 
	C10.932332,45.830482 10.102321,43.581192 13.119746,39.176853 
	C14.208463,37.587730 15.728584,36.082901 15.540247,33.838837 
	C15.469128,32.991447 15.748617,31.718651 16.333975,31.584776 
	C20.603510,30.608299 20.071947,26.781092 20.771910,23.954556 
	C22.339586,17.624052 27.289665,15.352707 32.628681,14.124860 
	C36.121075,13.321692 37.220287,11.560922 37.740593,8.278151 
z"/>
<path fill="#F71F04" opacity="1.000000" stroke="none" 
	d="
M82.931396,22.595505 
	C74.183640,26.962057 74.236496,26.949839 71.899139,16.838554 
	C71.325912,14.358841 70.029846,11.916243 66.931091,12.693597 
	C64.693283,13.254974 61.847698,15.014393 60.885799,12.338874 
	C59.847832,9.451772 63.882637,9.719043 65.730789,8.128274 
	C71.217583,9.951276 75.758133,12.949604 80.243538,16.150429 
	C82.608803,17.838310 81.481102,20.431477 82.931396,22.595505 
z"/>
<path fill="#F62007" opacity="1.000000" stroke="none" 
	d="
M60.850731,6.678591 
	C59.150242,9.222988 53.800991,8.731311 55.394470,13.989539 
	C55.659679,14.864687 54.246479,14.929454 53.431545,14.860138 
	C52.542240,14.784494 51.523930,14.244905 51.788097,13.397554 
	C54.606895,4.355895 48.598648,8.088176 44.840500,8.518463 
	C44.375736,8.571677 43.887302,8.418135 43.169678,8.118328 
	C43.001217,5.980671 45.320782,6.189313 45.950432,4.429675 
	C50.006599,4.131824 53.979500,4.142374 58.397240,4.228904 
	C59.447773,5.023018 60.053471,5.741152 60.850731,6.678591 
z"/>
<path fill="#F71F04" opacity="1.000000" stroke="none" 
	d="
M87.361237,70.061699 
	C85.262367,67.309181 83.131386,65.119461 87.083893,61.632313 
	C89.270203,59.703392 89.125221,55.314247 89.000816,51.428646 
	C90.319176,49.970676 91.564240,50.024803 92.898346,51.636131 
	C93.244995,56.697563 91.386810,60.926838 90.146942,65.680801 
	C90.126595,66.066010 90.035286,66.536247 90.004181,66.773727 
	C89.208366,67.679665 88.823891,68.589111 88.238281,69.719696 
	C88.067673,69.960182 87.597778,70.035713 87.361237,70.061699 
z"/>
<path fill="#F71F04" opacity="1.000000" stroke="none" 
	d="
M89.263123,43.280396 
	C87.602615,39.021587 88.037544,34.897091 88.053520,30.338501 
	C90.717285,30.698689 91.216408,33.122356 91.858521,35.272194 
	C92.740906,38.226524 93.305573,41.275753 94.000900,44.641594 
	C91.880341,46.463345 90.702911,45.014187 89.263123,43.280396 
z"/>
<path fill="#F62007" opacity="1.000000" stroke="none" 
	d="
M88.998993,43.444134 
	C90.439117,43.633694 91.878845,44.267391 93.656998,44.949974 
	C93.895988,47.140167 94.379662,49.321980 93.307877,51.717949 
	C91.946487,51.686794 90.827110,51.350239 89.354630,51.006233 
	C89.000549,48.628609 88.999573,46.258442 88.998993,43.444134 
z"/>
<path fill="#FECD01" opacity="1.000000" stroke="none" 
	d="
M273.266052,141.839340 
	C273.057037,142.827408 273.052307,143.556442 273.033325,144.649750 
	C269.196167,144.969452 268.467377,144.133957 269.431824,140.020538 
	C270.120483,137.083435 270.547150,134.499466 267.058929,133.076477 
	C267.204376,138.071625 265.994873,143.240234 269.285522,147.939545 
	C268.749634,148.550644 268.357666,148.810364 267.610535,149.160004 
	C265.938171,149.559708 264.644196,149.474777 263.434235,148.767761 
	C263.222076,149.188293 263.294739,147.487000 262.688782,148.759735 
	C260.611877,153.121841 257.432129,153.892548 254.226837,150.309082 
	C251.312851,147.051331 250.085876,148.377167 248.637573,151.225479 
	C248.262360,151.963425 247.723343,152.600525 247.304199,153.317139 
	C245.379181,156.608643 242.399292,158.483749 238.681961,158.109970 
	C234.800735,157.719727 232.078079,155.252975 230.668732,151.538834 
	C230.289398,150.539154 230.609558,149.038132 228.458633,149.315002 
	C224.666580,150.618973 221.273743,152.051193 217.344543,152.953491 
	C215.881119,152.924942 214.960831,152.487610 214.159515,151.262909 
	C212.947083,149.701157 213.118286,148.314117 213.446304,146.791245 
	C214.544678,141.692062 214.170364,141.255966 208.872131,140.948059 
	C208.045975,140.900070 207.227631,140.895172 206.226547,140.239883 
	C205.704071,139.537155 205.442535,139.056335 205.062195,138.328583 
	C202.792114,134.034927 202.606979,129.139679 199.287354,125.242805 
	C199.036575,121.298492 199.011841,117.610992 198.999115,113.463394 
	C201.766678,108.312729 207.830643,107.277779 210.545609,102.494118 
	C210.132309,101.531097 209.202728,101.842346 208.447174,101.804680 
	C207.062439,101.735634 205.727570,101.565460 205.245697,100.016968 
	C204.752396,98.431732 205.132889,96.767693 206.552719,96.081009 
	C209.850815,94.485924 211.062805,91.439331 212.751495,88.243439 
	C212.987030,87.987816 212.999390,87.999695 212.995392,87.993790 
	C213.760956,87.321198 214.814621,87.128380 215.789139,86.231110 
	C218.243912,86.201843 219.785141,84.942871 221.047653,83.373108 
	C224.355484,79.260269 228.980835,78.537025 233.817276,77.924477 
	C241.939590,76.895767 249.828888,77.435287 257.761444,80.687576 
	C258.964508,82.149078 260.795288,82.138054 261.828308,83.753784 
	C262.071228,83.962944 262.535461,83.973038 262.767029,83.989655 
	C263.987946,86.736237 268.028748,88.123070 266.298889,92.148010 
	C265.774048,93.369240 267.420593,93.854187 268.624023,94.076927 
	C270.743073,94.469147 272.867493,94.894539 274.777893,96.714493 
	C275.048798,96.948639 275.000000,96.996109 275.025574,96.975281 
	C277.170319,98.733940 276.752258,102.195396 279.725952,103.791611 
	C280.001282,103.992287 280.000275,103.999283 280.003357,103.999176 
	C280.166077,104.161964 280.325684,104.324852 280.717499,104.739029 
	C280.971924,105.427101 280.994141,105.863884 281.021759,106.628647 
	C282.191925,116.890945 280.342499,126.560936 278.234192,136.618683 
	C278.008240,137.009354 278.000000,137.000000 278.004517,137.004044 
	C275.848083,137.888885 274.590698,139.666595 273.266052,141.839340 
z"/>
<path fill="#FCCD08" opacity="1.000000" stroke="none" 
	d="
M227.805420,148.270355 
	C230.252823,146.429962 231.864761,146.761383 231.938629,149.720810 
	C232.048584,154.126251 235.471985,155.998169 238.542999,156.621628 
	C241.662766,157.254990 244.949326,155.584671 246.273270,151.826691 
	C246.757767,150.451447 247.784378,149.273712 248.504532,147.973114 
	C249.233902,146.655899 249.871277,145.255219 251.646179,145.139603 
	C253.768524,145.001343 253.872543,146.680801 254.253845,148.101303 
	C254.296051,148.258530 254.381210,148.406418 254.459946,148.551300 
	C255.554581,150.565369 257.340759,151.141525 259.487793,150.964294 
	C260.507843,150.880112 261.578094,150.741074 261.692535,149.467148 
	C261.880676,147.372910 259.527191,147.330368 258.347931,145.998154 
	C262.108185,143.402008 263.273865,149.075745 266.619690,147.999359 
	C267.576416,148.681824 267.738861,149.445145 267.234283,150.634308 
	C262.521057,153.153198 258.677155,156.581100 253.031647,157.738495 
	C251.398819,156.996262 250.428406,154.621170 249.349548,158.052826 
	C249.184601,158.841446 249.007050,159.266006 248.539078,159.928162 
	C247.501266,160.716751 246.610886,160.987564 245.320084,161.171814 
	C242.923172,161.477310 240.871307,161.708954 238.423645,161.922058 
	C234.618835,160.937973 231.230957,159.929077 228.310944,157.172470 
	C226.947662,156.102814 226.725876,154.794037 226.294983,153.225342 
	C226.014328,151.234543 226.619766,149.826965 227.805420,148.270355 
z"/>
<path fill="#FCCD0C" opacity="1.000000" stroke="none" 
	d="
M212.640839,88.034134 
	C213.492157,92.208366 212.587296,95.618225 207.922714,96.921234 
	C206.651962,97.276207 205.783813,98.112869 206.235962,99.488289 
	C206.888702,101.473793 207.990906,100.089188 208.961456,99.710625 
	C211.065903,98.889816 212.699188,99.884750 213.507339,101.602448 
	C214.480347,103.670578 212.417297,104.004837 211.210831,105.108360 
	C207.726715,108.295181 203.653809,110.456223 199.352249,112.925339 
	C199.050018,106.280647 204.065445,101.175079 204.937866,94.331909 
	C204.925995,93.936676 204.944489,93.963455 204.943253,93.953560 
	C206.201691,92.734764 207.392380,91.483635 207.868896,89.458694 
	C208.150879,89.294655 208.532608,89.124016 208.725830,89.045746 
	C210.044250,88.671806 211.169449,88.376137 212.640839,88.034134 
z"/>
<path fill="#FCCD0C" opacity="1.000000" stroke="none" 
	d="
M205.979584,140.382858 
	C207.411957,139.689438 208.844330,139.261765 210.307907,139.055038 
	C212.643372,138.725143 214.455475,139.558838 215.790985,141.609818 
	C217.002991,143.471130 216.475052,144.910599 215.340729,146.569260 
	C214.629379,147.609421 214.444473,149.009598 214.011719,150.618118 
	C210.800613,147.989456 206.949600,145.500336 205.979584,140.382858 
z"/>
<path fill="#FCCD0C" opacity="1.000000" stroke="none" 
	d="
M227.617035,148.010925 
	C229.389038,149.798294 227.818924,151.003189 227.058182,152.689880 
	C226.354767,154.545395 224.930817,155.165787 223.267868,155.969208 
	C221.123993,155.206085 219.290756,154.345154 217.229248,153.239532 
	C219.210388,148.863678 224.080048,150.208923 227.617035,148.010925 
z"/>
<path fill="#FCCD0C" opacity="1.000000" stroke="none" 
	d="
M199.097336,125.368683 
	C201.704056,125.986504 202.547363,129.083817 205.246765,130.177277 
	C206.298615,130.603348 205.982773,132.275635 205.157944,133.218552 
	C203.965515,134.581711 204.519958,135.958542 204.918747,137.724945 
	C201.244934,137.354034 201.730606,133.885330 200.720230,131.462418 
	C199.965607,129.652847 199.646439,127.661682 199.097336,125.368683 
z"/>
<path fill="#FECD01" opacity="1.000000" stroke="none" 
	d="
M223.240387,156.309692 
	C223.181427,154.091629 224.265106,153.051590 226.636597,153.007904 
	C229.573257,153.407806 228.282822,155.060776 228.042328,156.691040 
	C226.510376,156.862900 225.016953,156.707626 223.240387,156.309692 
z"/>
<path fill="#F62007" opacity="1.000000" stroke="none" 
	d="
M37.993637,7.782060 
	C38.293819,9.138758 38.361450,10.376102 38.927784,11.311511 
	C40.530548,13.958776 39.586338,15.253260 36.839615,14.925908 
	C32.217098,14.375003 29.264397,18.754091 24.869097,18.615429 
	C25.138353,22.283894 20.268631,24.547283 22.097483,28.597620 
	C22.660786,29.845163 23.442080,31.062943 22.370245,32.251503 
	C21.325357,33.410187 20.284250,32.385277 19.264498,31.894241 
	C17.119360,30.861309 17.016735,32.484348 17.039557,33.818874 
	C17.085690,36.516624 15.543854,38.531757 14.148010,40.515587 
	C13.461293,41.491577 11.556546,41.799599 12.512385,43.512680 
	C13.379090,45.066010 14.912311,45.890125 16.702930,45.510269 
	C18.743483,45.077393 20.883602,44.481720 21.702688,47.061588 
	C22.500519,49.574505 22.181234,52.126209 19.583708,53.600849 
	C16.086847,55.586048 16.774376,57.722095 19.315645,59.764095 
	C22.487030,62.312405 22.375736,66.553062 24.707903,69.611374 
	C26.193628,71.559708 23.599331,73.030380 22.128967,74.756271 
	C20.527773,75.536423 20.076769,74.354576 19.138451,73.366554 
	C17.329826,71.007622 15.774914,68.854675 14.074886,66.400902 
	C12.848857,64.758003 13.300196,62.925316 12.213066,61.259247 
	C11.951464,60.588402 11.935767,60.164814 11.931303,59.423439 
	C11.760541,58.829681 11.561662,58.566460 11.158060,58.154755 
	C9.868574,55.710155 9.036217,53.353405 9.008476,50.390369 
	C9.144243,49.830219 9.275309,49.658337 9.193947,49.241501 
	C9.009172,46.622593 9.036825,44.248631 9.101303,41.431160 
	C9.272104,40.808632 9.406082,40.629616 9.756898,40.194721 
	C9.973737,39.938843 9.975295,39.471825 9.991752,39.238895 
	C13.121680,36.158749 12.418626,32.010891 13.774708,28.223267 
	C15.551450,23.165672 19.737717,20.331406 22.759502,16.207157 
	C23.874422,15.153431 24.553381,14.123549 25.766811,13.212408 
	C25.975563,12.994176 25.997030,12.998110 26.000765,12.987869 
	C26.434626,12.564270 27.007198,12.514668 27.737659,12.171162 
	C27.930964,11.967706 28.418360,11.871290 28.663666,11.832077 
	C29.844412,11.107052 30.691011,10.320791 31.750687,9.252652 
	C31.996721,9.008044 32.002201,9.001957 32.005768,8.999569 
	C33.005089,8.029671 34.477104,8.197897 35.860939,7.322813 
	C36.546051,7.117982 36.955212,7.088121 37.670647,7.034377 
	C37.980873,7.181948 37.984821,7.353402 37.993637,7.782060 
z"/>
<path fill="#F71F04" opacity="1.000000" stroke="none" 
	d="
M23.702639,77.400459 
	C25.918427,77.002632 27.964626,77.112335 28.051876,74.173058 
	C28.089924,72.891411 28.415287,71.135727 30.196854,71.740005 
	C31.390944,72.145020 31.792805,73.918549 31.521875,75.169579 
	C31.152748,76.874023 29.675463,78.277039 30.002079,80.612556 
	C30.121746,81.204132 30.242956,81.411003 30.192104,81.933884 
	C29.565390,82.421272 29.095228,82.481506 28.294342,82.276581 
	C26.786291,81.573524 25.595665,81.040306 24.183527,80.265930 
	C23.484634,79.330849 23.278893,78.581032 23.702639,77.400459 
z"/>
<path fill="#F62007" opacity="1.000000" stroke="none" 
	d="
M29.682362,82.268967 
	C29.988741,81.864418 29.991190,81.691002 29.997087,81.257416 
	C32.852615,80.960602 35.809673,80.708786 36.910030,84.714828 
	C36.577492,85.524635 36.136665,85.867302 35.278175,86.047180 
	C34.450397,85.884872 33.903866,85.679443 33.154572,85.258850 
	C32.567642,84.555313 31.993034,84.508217 31.201935,84.254517 
	C30.687216,83.913338 30.417799,83.712021 29.998425,83.306313 
	C29.691788,82.901306 29.535109,82.700691 29.682362,82.268967 
z"/>
<path fill="#EB2210" opacity="1.000000" stroke="none" 
	d="
M13.696961,28.186268 
	C13.130545,31.660246 15.673910,36.390259 10.343986,38.929268 
	C10.929625,35.408470 11.348826,31.648403 13.696961,28.186268 
z"/>
<path fill="#EB2210" opacity="1.000000" stroke="none" 
	d="
M11.962389,61.379955 
	C14.584013,61.527687 13.849725,63.614388 13.952993,65.698814 
	C12.236469,65.118774 11.858082,63.541630 11.962389,61.379955 
z"/>
<path fill="#D63020" opacity="1.000000" stroke="none" 
	d="
M25.621716,12.999311 
	C25.850534,14.487446 25.165222,15.524986 23.297192,15.907374 
	C22.996464,15.243208 23.031796,14.545530 23.112608,13.503162 
	C23.861349,13.107131 24.564608,13.055789 25.621716,12.999311 
z"/>
<path fill="#DA2C1C" opacity="1.000000" stroke="none" 
	d="
M18.958542,73.468948 
	C19.730116,73.694321 20.575491,74.228073 21.683035,74.913040 
	C21.959272,75.495117 21.973343,75.925972 21.983707,76.680695 
	C20.600241,76.291603 19.535585,75.290855 18.958542,73.468948 
z"/>
<path fill="#DA2C1C" opacity="1.000000" stroke="none" 
	d="
M35.231369,86.311768 
	C35.456654,85.770439 35.916382,85.450569 36.663963,85.106140 
	C37.223854,85.559326 37.495895,86.037071 37.872581,86.770233 
	C37.140095,86.861519 36.302952,86.697372 35.231369,86.311768 
z"/>
<path fill="#DA2C1C" opacity="1.000000" stroke="none" 
	d="
M23.592510,77.044571 
	C23.934877,77.797501 23.957407,78.538918 23.970978,79.652557 
	C22.976162,79.515038 22.278660,78.774826 22.026600,77.334976 
	C22.417494,77.024818 22.845081,77.028938 23.592510,77.044571 
z"/>
<path fill="#DA2C1C" opacity="1.000000" stroke="none" 
	d="
M31.154076,84.318970 
	C31.503931,84.269096 32.051231,84.423538 32.775169,84.810829 
	C32.418381,84.870209 31.884949,84.696739 31.154076,84.318970 
z"/>
<path fill="#DA2C1C" opacity="1.000000" stroke="none" 
	d="
M29.651030,82.034904 
	C29.971155,82.215775 29.956022,82.393707 29.894678,82.836784 
	C29.345276,82.907021 28.842081,82.712120 28.157902,82.311981 
	C28.423203,82.081818 28.869486,82.056892 29.651030,82.034904 
z"/>
<path fill="#EB2210" opacity="1.000000" stroke="none" 
	d="
M8.977921,49.248306 
	C9.082901,49.263786 9.184281,49.531021 9.149421,49.900177 
	C9.000226,49.834755 8.987273,49.667404 8.977921,49.248306 
z"/>
<path fill="#EB2210" opacity="1.000000" stroke="none" 
	d="
M11.083556,58.217705 
	C11.225842,58.209133 11.481462,58.424755 11.839811,58.873013 
	C11.693989,58.884399 11.445440,58.663147 11.083556,58.217705 
z"/>
<path fill="#EB2210" opacity="1.000000" stroke="none" 
	d="
M9.784184,40.070896 
	C9.884274,40.239162 9.726799,40.498081 9.319718,40.851627 
	C9.206206,40.677177 9.358374,40.415611 9.784184,40.070896 
z"/>
<path fill="#F71F04" opacity="1.000000" stroke="none" 
	d="
M41.317230,87.301079 
	C41.315140,83.966644 43.055557,82.960640 46.080013,82.932098 
	C50.295761,82.892334 54.484875,83.560699 58.673927,81.311981 
	C61.934868,79.561478 62.424206,84.229050 64.781105,85.730225 
	C57.400803,89.359428 49.504875,88.232224 41.317230,87.301079 
z"/>
<path fill="#FCCD08" opacity="1.000000" stroke="none" 
	d="
M262.055481,83.614487 
	C260.414764,83.760902 258.866089,83.378456 258.087585,81.275566 
	C259.042725,80.985970 260.053162,81.035805 261.436035,81.140533 
	C261.885559,81.885635 261.962646,82.575829 262.055481,83.614487 
z"/>
<path fill="#FCCD0C" opacity="1.000000" stroke="none" 
	d="
M215.688385,86.050865 
	C215.828674,87.382301 214.997955,87.966911 213.337036,87.981583 
	C213.476990,86.968750 214.222000,86.273148 215.688385,86.050865 
z"/>
<path fill="#0AAEF5" opacity="1.000000" stroke="none" 
	d="
M202.887177,14.675816 
	C201.410400,15.699167 200.239792,13.302551 198.466782,14.424594 
	C196.970108,15.371762 195.182922,15.397628 193.930756,14.071485 
	C192.302429,12.346953 194.814697,11.225202 194.951996,9.351633 
	C195.991882,9.061521 196.975952,9.115943 198.313873,9.254896 
	C198.796936,12.013254 202.142883,12.074446 202.887177,14.675816 
z"/>
<path fill="#0AAEF5" opacity="1.000000" stroke="none" 
	d="
M219.158569,40.794685 
	C216.793350,40.913143 215.287491,40.649338 215.431671,37.695290 
	C215.560989,35.045998 214.611572,32.344059 214.112640,29.267910 
	C217.592377,31.479343 217.607330,35.633766 218.862030,39.651680 
	C219.150024,40.185524 219.284821,40.374702 219.158569,40.794685 
z"/>
<path fill="#25A6D8" opacity="1.000000" stroke="none" 
	d="
M221.024536,48.576031 
	C221.001953,48.992447 220.505615,49.008072 220.257538,49.014900 
	C218.545166,47.495602 219.215454,45.560970 218.986847,43.392586 
	C218.964691,42.991055 219.433548,42.945545 219.665588,42.911812 
	C220.097549,43.148937 220.297470,43.419800 220.699585,43.838966 
	C220.950226,45.378052 220.998672,46.768833 221.024536,48.576031 
z"/>
<path fill="#29A9DE" opacity="1.000000" stroke="none" 
	d="
M207.950531,18.682304 
	C206.102676,18.838919 204.926346,17.436890 203.384613,16.133917 
	C205.960098,14.521468 207.069107,16.187366 207.950531,18.682304 
z"/>
<path fill="#25A6D8" opacity="1.000000" stroke="none" 
	d="
M219.146088,41.062080 
	C218.919739,40.854267 218.941925,40.683041 218.989655,40.254074 
	C219.256561,40.232853 219.497910,40.469372 219.812653,40.954700 
	C219.722244,41.168564 219.558441,41.133621 219.146088,41.062080 
z"/>
<path fill="#FCCD08" opacity="1.000000" stroke="none" 
	d="
M278.278259,136.888077 
	C278.964508,127.269096 279.920746,117.528847 280.952057,107.372604 
	C281.271210,106.978195 281.515289,106.999771 282.128601,107.046570 
	C282.467987,107.427414 282.438110,107.783035 282.414429,108.403687 
	C281.398132,113.862938 283.722260,119.054596 282.131653,124.358299 
	C281.164337,127.583694 279.155731,130.753922 280.226257,134.863861 
	C280.320801,135.310928 280.262421,135.689468 280.222748,135.876801 
	C279.638153,136.298355 279.093231,136.532578 278.278259,136.888077 
z"/>
<path fill="#FCCD08" opacity="1.000000" stroke="none" 
	d="
M275.041809,96.564911 
	C272.066345,97.488762 269.695831,95.690323 267.099335,94.801407 
	C266.410889,94.565720 265.312103,93.535027 265.415253,93.281342 
	C266.847443,89.757973 263.406036,87.675926 263.008148,84.371490 
	C265.515747,86.207031 270.902954,86.805756 266.791260,93.065910 
	C271.350983,91.157242 275.008209,90.233742 275.041809,96.564911 
z"/>
<path fill="#FCCD08" opacity="1.000000" stroke="none" 
	d="
M279.861786,103.660667 
	C275.728607,103.993958 275.216095,100.997322 275.036316,97.350815 
	C278.937042,97.372810 278.702515,100.810493 279.861786,103.660667 
z"/>
<path fill="#FCCD08" opacity="1.000000" stroke="none" 
	d="
M280.841492,104.782852 
	C280.664856,104.852211 280.427460,104.656578 280.121948,104.201248 
	C280.302643,104.123207 280.544922,104.315315 280.841492,104.782852 
z"/>
<path fill="#FCCD08" opacity="1.000000" stroke="none" 
	d="
M269.245667,148.241455 
	C268.848755,146.664536 268.002930,145.835526 266.836151,145.498657 
	C263.630585,144.573242 263.674652,142.640488 264.921722,140.131348 
	C266.175537,137.608719 266.863281,135.081512 264.117767,132.968933 
	C263.385010,132.405075 263.014740,131.618484 263.540405,130.810501 
	C264.040588,130.041718 264.935608,130.041565 265.796753,130.185638 
	C271.071045,131.068115 273.374969,135.141693 271.115601,140.170670 
	C270.142365,142.336929 269.580963,143.892029 272.664246,144.951950 
	C272.435089,146.142700 272.038483,147.425644 270.336670,147.952316 
	C269.848480,148.171768 269.673553,148.331009 269.245667,148.241455 
z"/>
<path fill="#FCCD08" opacity="1.000000" stroke="none" 
	d="
M273.388885,142.025665 
	C272.914337,139.125107 274.206360,137.343399 277.636169,137.015442 
	C276.617676,138.690826 276.068298,141.104507 273.388885,142.025665 
z"/>
<path fill="#FCCD0C" opacity="1.000000" stroke="none" 
	d="
M268.660797,147.994965 
	C269.164398,147.995453 269.336090,147.998230 269.765625,148.006775 
	C269.696686,148.775970 269.369995,149.539413 268.977356,150.605133 
	C268.486725,150.931839 268.062073,150.956299 267.317505,150.976379 
	C266.998596,150.229950 266.999603,149.487885 267.000916,148.374435 
	C267.443787,148.001129 267.886353,147.999191 268.660797,147.994965 
z"/>
<path fill="#FCCD0C" opacity="1.000000" stroke="none" 
	d="
M247.815582,160.248901 
	C248.005295,159.527695 248.003433,159.090347 248.001404,158.324966 
	C249.287888,156.856888 250.690842,156.559662 252.617813,157.693207 
	C252.983444,157.975937 252.998383,157.998093 253.004456,158.011169 
	C252.612183,158.602783 252.213821,159.181320 251.968567,159.914001 
	C251.150330,160.907211 249.953278,160.966431 248.401291,161.058121 
	C247.902618,160.894470 247.763306,160.713608 247.815582,160.248901 
z"/>
<path fill="#D63020" opacity="1.000000" stroke="none" 
	d="
M88.343201,69.818100 
	C88.074135,68.840942 87.999809,67.685417 89.649467,67.085030 
	C89.973480,68.129135 89.534729,69.023857 88.343201,69.818100 
z"/>
<path fill="#EDCC2F" opacity="1.000000" stroke="none" 
	d="
M247.658966,159.989273 
	C248.013184,160.149872 248.019226,160.334702 248.033600,160.797455 
	C248.041946,161.075348 248.024719,161.517517 247.993134,161.736465 
	C247.130844,161.846588 246.300156,161.737747 245.222244,161.437286 
	C245.474487,160.305832 246.345413,160.070160 247.658966,159.989273 
z"/>
<path fill="#D63020" opacity="1.000000" stroke="none" 
	d="
M35.754761,7.108042 
	C35.617401,8.894940 34.194305,8.978123 32.372303,8.996155 
	C32.275585,8.526043 32.541840,8.054905 32.945564,7.350963 
	C33.846237,7.101519 34.609432,7.084880 35.754761,7.108042 
z"/>
<path fill="#D63020" opacity="1.000000" stroke="none" 
	d="
M31.640709,9.008278 
	C31.983015,10.598027 31.631014,11.909081 29.273901,11.830320 
	C28.962265,11.134869 29.015554,10.476871 29.116901,9.491917 
	C29.871538,9.112808 30.578117,9.060660 31.640709,9.008278 
z"/>
<path fill="#D63020" opacity="1.000000" stroke="none" 
	d="
M27.649323,12.005383 
	C27.479809,12.286653 27.028656,12.605600 26.291000,12.951088 
	C26.458895,12.666106 26.913290,12.354583 27.649323,12.005383 
z"/>
<path fill="#EDCC2F" opacity="1.000000" stroke="none" 
	d="
M207.878723,89.237541 
	C207.927475,91.150261 208.129990,93.238258 205.299240,93.904861 
	C205.004608,93.246201 205.067215,92.548744 205.153397,91.505257 
	C206.020844,90.969666 206.659103,90.531258 207.010300,89.382034 
	C207.242065,89.112549 207.424316,89.146484 207.878723,89.237541 
z"/>
<path fill="#25A726" opacity="1.000000" stroke="none" 
	d="
M134.161713,150.575531 
	C132.901794,149.478226 132.813385,148.410599 133.905655,147.538010 
	C134.449844,147.103271 135.283661,147.349762 135.562836,148.003403 
	C136.056137,149.158386 136.045135,150.266800 134.161713,150.575531 
z"/>
<path fill="#25A726" opacity="1.000000" stroke="none" 
	d="
M127.220444,150.401688 
	C128.346176,149.163712 128.684082,149.932266 128.816772,150.813568 
	C128.912109,151.446762 128.818085,152.273712 127.935883,152.200745 
	C127.137749,152.134735 127.146088,151.337799 127.220444,150.401688 
z"/>
<path fill="#F62007" opacity="1.000000" stroke="none" 
	d="
M45.959030,14.521726 
	C46.236187,12.350540 47.649876,13.064842 48.816322,13.341890 
	C49.365513,13.472331 49.415264,14.144070 49.004120,14.494490 
	C48.163994,15.210530 47.161819,14.976678 45.959030,14.521726 
z"/>
<path fill="#FECD01" opacity="1.000000" stroke="none" 
	d="
M252.974335,157.596420 
	C251.599716,157.983261 250.215973,157.990585 248.416733,157.997421 
	C248.246307,156.667252 246.025497,154.603149 248.976028,154.108276 
	C251.226135,153.730896 252.835892,154.641144 252.974335,157.596420 
z"/>
</svg>